<?xml version="1.0" encoding="UTF-8"?><svg id="b" xmlns="http://www.w3.org/2000/svg" width="377.492" height="359.157" viewBox="0 0 377.492 359.157"><defs><style>.s{fill:#bdbdbd;}.s,.t,.u,.v,.w,.x,.y,.z,.aa,.ab{stroke-width:0px;}.t{fill:#7abee6;}.u{fill:#f5f5f5;}.v{fill:none;}.w{fill:#fce0cd;}.x{fill:#fff;}.y{fill:#e2e2e2;}.z{fill:#3d8dcc;}.aa{fill:#cfcfcf;}.ab{fill:#645d5c;}</style></defs><g id="c"><path class="x" d="M166.672,6.949c0-1.683.001-3.337.002-4.958-33.999,19.632-93.207,53.822-128.115,73.982-.013,30.429-.033,72.814-.039,98.052,34.828-20.109,94.592-54.625,128.113-73.986.011-24.02.027-63.156.039-93.089Z"/><g id="d"><path class="z" d="M273.127,179.107c-4.095-2.365-8.183-4.726-12.241-7.069v-39.274c5.156,2.968,10.414,5.995,13.226,7.614,1.252.721,2.018,2.044,2.018,3.488.003,6.567.011,25.513.016,36.985-1.007-.581-2.014-1.163-3.02-1.744Z"/></g><g id="e"><path class="z" d="M346.747,221.624c-2.428-1.402-4.928-2.846-7.491-4.326v-37.286c5.633,3.243,11.709,6.74,14.811,8.525,1.252.721,2.018,2.044,2.018,3.488.003,6.201.011,23.44.016,35.001-2.975-1.718-6.1-3.523-9.354-5.403Z"/></g><g id="f"><path class="x" d="M375.426,296.917c0-6.19,0-32.869.005-58.726-29.568-17.08-100.431-58.002-151.668-87.591-15.937-9.203-29.975-17.31-40.276-23.27-29.043,16.789-70.638,40.824-103.722,59.93,52.055,30.051,175.729,101.469,192.241,111.003-.009,29.042-.009,58.62-.009,58.62v.283c.355-.204.71-.409.71-.409,2.87-1.652,86.339-49.893,102.718-59.354,0-.145,0-.307,0-.487Z"/></g><g id="g"><path class="y" d="M293.697,188.676c-10.601-6.122-21.201-12.244-31.802-18.365-2.233-1.29-4.25,2.166-2.019,3.454,10.601,6.122,21.201,12.244,31.802,18.365,2.233,1.29,4.25-2.166,2.019-3.454h0Z"/></g><g id="h"><path class="y" d="M244.084,174.308c-.774-.447-25.004-14.439-26.186-15.122-.526.304-17.71,10.235-18.124,10.474,2.269,1.311,23.351,13.486,26.184,15.122.483-.279,17.726-10.243,18.126-10.473,0,0,0,0,0,0Z"/></g><path class="w" d="M238.079,170.791c.156-.299.334-.581.533-.838.831-1.07,2.522-2.764,4.042-3.597,1.507-.826,6.476-.665,7.713-.528l.758.084c.812,2.433,2.048,5.8,2.902,8.761-5.646,4.085-13.547,5.275-15.992,2.505-1.069-1.212-1.075-4.242.044-6.388Z"/><g id="i"><path class="aa" d="M239.706,237.961c-.643.371-20.799,12.011-21.783,12.579-.438-.253-14.732-8.514-15.076-8.713,1.887-1.091,19.425-11.218,21.781-12.579.402.232,14.745,8.52,15.078,8.712,0,0,0,0,0,0Z"/></g><g id="j"><path class="aa" d="M269.193,252.473c-.643-.371-20.799-12.011-21.783-12.579-.438.253-14.732,8.514-15.076,8.713,1.887,1.091,19.425,11.218,21.781,12.579.402-.232,14.745-8.52,15.078-8.712,0,0,0,0,0,0Z"/></g><path class="y" d="M84.16,116.229c0,.376-.007,12.305-.007,12.783.929-.536,16.795-9.699,17.39-10.042,0-.346.006-12.344.006-12.783-2.223,1.284-15.607,9.012-17.388,10.043Z"/><path class="y" d="M109.463,83.361c0,.376-.007,30.565-.007,31.043.929-.536,16.795-9.699,17.39-10.042,0-.346.006-30.605.006-31.044-2.223,1.284-15.607,9.012-17.388,10.043Z"/><path class="z" d="M134.765,50.492c0,.376-.007,48.826-.007,49.304.929-.536,16.795-9.699,17.39-10.042,0-.346.006-48.865.006-49.304-2.223,1.284-15.607,9.012-17.388,10.043Z"/><g id="k"><path class="y" d="M81.766,246.909c0-13.389,0-26.779.003-40.168,0-6.399.002-12.797.003-19.196,0-2.574-4-2.578-4,0-.003,18.43-.005,36.859-.005,55.289,0,1.358,0,2.716,0,4.075,0,2.574,4,2.578,4,0h0Z"/></g><path class="ab" d="M36.54,119.355c-.008,18.223-.016,36.447-.02,54.67,0,1.522,1.698,2.484,3.009,1.727,12.833-7.409,25.665-14.82,38.497-22.23,14.525-8.388,29.049-16.776,43.574-25.164,13.193-7.619,26.385-15.238,39.578-22.858,1.374-.794,2.748-1.587,4.122-2.381.659-.381,1.328-.748,1.978-1.143,1.179-.716,1.355-1.55,1.356-2.865.002-3.577.003-7.154.005-10.731.004-8.448.007-16.896.011-25.344.008-18.055.015-36.11.022-54.165,0-2.294.002-4.587.003-6.881,0-1.522-1.698-2.484-3.009-1.727-19.02,10.983-38.04,21.966-57.059,32.949-20.168,11.646-40.336,23.293-60.504,34.939-2.389,1.38-4.778,2.76-7.168,4.139-1.119.646-2.314,1.232-3.384,1.954-1.6,1.08-.992,4.004-.992,5.697-.004,8.438-.007,16.876-.011,25.314-.001,2.574,3.999,2.578,4,0,.004-9.761.009-19.523.013-29.284l-.991,1.727c16.355-9.445,32.71-18.89,49.065-28.334,17.869-10.319,35.739-20.638,53.609-30.956,8.481-4.897,16.961-9.794,25.442-14.691l-3.009-1.727c-.011,26.463-.021,52.926-.033,79.389-.003,6.219-.005,12.439-.008,18.658l.991-1.727c-16.069,9.281-32.139,18.562-48.209,27.843-17.979,10.383-35.957,20.766-53.936,31.148-8.656,4.998-17.312,9.997-25.968,14.995l3.009,1.727c.004-18.223.012-36.447.02-54.67.001-2.574-3.999-2.578-4,0h0Z"/><path class="ab" d="M73.229,102.631c-1.219,1.531-2.4,3.092-3.53,4.689-.285.402-.328,1.083-.202,1.541.128.464.486.967.919,1.195.464.245,1.026.368,1.541.202l.478-.202c.301-.178.54-.417.718-.718.762-1.077,1.546-2.138,2.353-3.182l-.313.405c.286-.37.574-.737.865-1.103.195-.181.333-.396.414-.644.125-.238.183-.495.172-.771,0-.491-.218-1.076-.586-1.414-.381-.35-.882-.61-1.414-.586-.495.022-1.091.18-1.414.586h0Z"/><path class="x" d="M39.069,112.336c-.727,7.887-2.651,16.606-5.374,23.024-.227.535-.474,1.082-.82,1.361-.762.615-1.627-.285-2.294-1.175-4.738-6.316-8.331-12.891-11.453-21.758l19.942-1.452Z"/><path class="w" d="M67.681,107.019c-.961-.054-1.91.098-2.775.518-4.86,2.358-4.723,10.631-3.25,10.178,2.752,1.783,5.504,3.566,8.255,5.35.187-.033.372-.08.552-.134,2.72-.816,4.842-3.294,5.315-6.093.473-2.8-.683-5.796-2.859-7.62-1.439-1.206-3.363-2.094-5.239-2.199Z"/><path class="z" d="M49.337,119.064c-3.082-2.448-6.678-4.579-10.268-6.727-.65,8.299-2.519,16.295-5.374,23.024-.227.535-.474,1.082-.82,1.361-.762.615-1.627-.285-2.294-1.175-4.817-6.422-8.451-13.111-11.604-22.207-3.627-.455-9.329,3.714-11.752,6.552-1.189,1.393-2.55,3.387-3.358,5.03-1.386,2.817-2.164,5.351-2.956,8.389-1.837,7.047-.865,14.784,2.656,21.158,1.057,1.914,2.341,3.698,3.808,5.318-.15,1.279-.236,2.002-.236,2.002,0,0-.484,4.067-.484,6.667,5.233,1.244,10.541,2.232,16.943,2.578,9.682.523,20.049-.406,25.518-.844.314-4.092.207-22.707.484-27.107,0,0,.082-1.305.164-2.609l.753.402,2.785,1.487c4.187,1.298,8.194-4.679,9.928-7.099,2.692-3.757,5.164-7.679,7.489-11.673-3.489-2.262-6.978-4.524-10.467-6.785-1.781,2.028-4.044,4.517-6.29,6.758-1.316-1.639-2.889-3.118-4.624-4.497Z"/><path class="s" d="M7.952,226.722c.135-1.354.853-3.413,2.003-4.258.942.287,1.925.466,2.528.524,4.884.469,9.516.746,13.835-1.582l3.487-2.551c4.11.614,8.647.843,11.868-.273.365-.126.707-.276,1.036-.438,1.666,1.492,5.285,4.693,6.11,6.209.899,1.652,1.232,3.721.416,5.416-.758,1.575-2.399,2.59-4.105,2.965-1.707.375-3.486.189-5.208-.111-2.921-.509-5.164-1.18-7.961-2.338.126.905.128,1.98-.056,2.65-.474,1.729-1.471,2.666-3.028,3.556-1.683.961-3.961.998-5.893.858-3.001-.218-5.886-1.211-8.708-2.255-1.818-.672-3.732-1.449-4.856-3.029-1.202-1.69-1.674-3.278-1.469-5.342Z"/><path class="u" d="M23.598,171.032c2.152.116,4.337.158,6.495.152.254,0,.505,0,.759-.001.038,0,.076,0,.114-.001,5.458-.018,10.734-.377,14.751-.701-.008.241-.011.373-.011.373-.233,11.4-1.383,37.319-1.898,46.628-.612.46-1.332.821-2.134,1.099-3.221,1.116-7.758.887-11.868.273l-3.487,2.551c-4.319,2.328-8.952,2.051-13.835,1.582-1.048-.101-3.244-.556-4.378-1.333-.156-12.441-.017-40.493.751-52.696,4.537,1.002,9.234,1.776,14.741,2.074Z"/><path class="y" d="M26.461,177.69c0,12.386-.028,24.772-.178,37.157-.031,2.575,3.969,2.576,4,0,.149-12.385.178-24.771.178-37.157,0-2.574-4-2.578-4,0h0Z"/><path class="x" d="M17.182,155.635c2.259-3.467,5.051-9.017,8.055-13.948,7.05,1.845,13.446,3.563,19.726,5.131-3.947,7.509-8.087,14.958-12.414,22.315-2.021-.607-5.366-1.494-7.663-2.24l-7.704-11.258Z"/><path class="w" d="M32.383,157.384c.137.3.244.603.312.904,1.276,5.62-4.976,9.53-8.559,9.03-7.032-.982-9.76-4.054-11.524-10.193-.436-2.836.04-5.484,2.523-7.564,1.859-1.557,3.512-2.086,5.023-1.645,2.357.688,3.605,2.323,3.743,4.206,2.122.46,4.386,1.166,6.276,2.47.893.616,1.713,1.715,2.205,2.793Z"/><path class="v" d="M28.239,117.136c-.204.579-.567,1.691-.968,2.885"/><path class="v" d="M31.375,115.633c.731,1.215,1.417,2.457,2.058,3.722"/><g id="l"><path class="y" d="M214.97,143.212c-10.159-5.867-20.318-11.734-30.473-17.609-2.232-1.292-4.249,2.164-2.019,3.454,10.154,5.875,20.314,11.742,30.473,17.609,2.233,1.29,4.25-2.165,2.019-3.454h0Z"/></g><g id="m"><path class="y" d="M376.441,236.464c-12.058-6.965-24.117-13.93-36.175-20.894-2.233-1.29-4.25,2.165-2.019,3.454,12.059,6.964,24.117,13.929,36.175,20.894,2.233,1.29,4.25-2.165,2.019-3.454h0Z"/></g><g id="n"><path class="y" d="M182.479,125.604c-26.909,15.555-53.82,31.105-80.734,46.652-7.662,4.426-15.325,8.852-22.988,13.277-1.297.749-1.298,2.705,0,3.454,12.496,7.214,24.991,14.428,37.486,21.643,15.192,8.772,30.385,17.544,45.577,26.316,15.382,8.882,30.765,17.765,46.147,26.647,12.864,7.428,25.727,14.856,38.591,22.284,7.687,4.439,15.373,8.877,23.06,13.316.46.266.92.531,1.381.797l-.991-1.727c-.005,18.307-.008,36.614-.008,54.922,0,1.327,0,2.654,0,3.982,0,1.523,1.697,2.483,3.009,1.727,5.123-2.95,10.238-5.912,15.356-8.87,10.501-6.068,21.003-12.137,31.504-18.205,11.379-6.576,22.757-13.151,34.136-19.726,4.556-2.633,9.112-5.265,13.668-7.898,1.727-.998,3.454-1.996,5.181-2.993,1.204-.695,3.584-1.562,4.3-2.787.539-.923.273-2.637.273-3.707,0-1.344,0-2.688,0-4.033,0-3.881,0-7.761,0-11.642,0-10.667.002-21.333.003-32,0-2.947,0-5.894.001-8.841,0-2.574-4-2.578-4,0-.003,17.341-.005,34.682-.005,52.022,0,2.397,0,4.794,0,7.191l.991-1.727c-13.853,8.001-27.703,16.007-41.555,24.012-16.556,9.568-33.112,19.136-49.669,28.702-4.068,2.35-8.133,4.704-12.204,7.049l3.009,1.727c0-13.183.002-26.365.004-39.548.001-6.452.003-12.904.005-19.355,0-.702-.381-1.375-.991-1.727-6.897-3.983-13.794-7.965-20.692-11.948-12.332-7.121-24.664-14.242-36.996-21.363-15.215-8.786-30.43-17.571-45.645-26.357-15.404-8.895-30.808-17.789-46.212-26.684-12.935-7.468-25.869-14.937-38.804-22.404-1.297-.749-2.595-1.498-3.892-2.247v3.454c27.61-15.945,55.218-31.896,82.823-47.85,6.966-4.026,13.933-8.053,20.899-12.079,2.228-1.288.216-4.746-2.019-3.454h0Z"/></g><g id="o"><path class="y" d="M271.999,300.462c.692.027,1.39-.489,1.975-.827.733-.423,1.465-.847,2.198-1.27,2.526-1.46,5.052-2.919,7.577-4.379,7.953-4.596,15.906-9.192,23.858-13.788,9.629-5.565,19.258-11.13,28.887-16.694,8.377-4.841,16.754-9.683,25.131-14.524,4.442-2.567,8.938-5.062,13.335-7.706.13-.078.263-.152.394-.228.85-.491,1.042-1.366.919-2.259l-.007-.054c-.147-1.071-1.517-1.656-2.46-1.397-1.154.317-1.545,1.386-1.397,2.46l.007.054.919-2.259c-3.714,2.145-7.427,4.292-11.14,6.438-8.018,4.634-16.037,9.268-24.055,13.902-9.561,5.525-19.121,11.051-28.682,16.576-8.34,4.82-16.679,9.639-25.019,14.459-4.343,2.51-8.825,4.871-13.067,7.551-.122.077-.252.145-.377.218l1.009-.273h-.007c-2.574-.102-2.57,3.898,0,4h0Z"/></g><path class="w" d="M210.688,236.643c2.763-.851,5.385-2.356,7.182-4.619,2.67-3.363,3.528-8.304,3.26-12.502-.263-4.118-1.6-8.107-4.399-11.201-.404-.446-.831-.87-1.279-1.272-6.597-5.923-16.342-6.233-23.617-1.364-2.09,1.399-3.919,3.205-5.221,5.366-2.453,4.072-2.912,9.13-2.007,13.797.577,2.977,1.729,5.926,3.825,8.118,5.372,5.614,15.213,5.817,22.184,3.701.024-.007.049-.015.073-.022Z"/><path class="z" d="M221.494,302.315v11.458c-5.39,3.109-20.486,11.776-25.474,14.659-1.41.815-3.714.814-5.124,0-5.409-3.124-17.902-10.339-24.991-14.433-1.57-.907-2.528-2.569-2.528-4.382v-12.209l58.117,4.908Z"/><path class="u" d="M185.898,282.668c12.941-3.659,35.69,2.425,35.69,2.425,6.085,1.288,11.377,4.909,12.464,11.493.179,3.548-.821,14.992-1.365,19.454-.088.724-.039,1.473-.307,2.159-.275.704-.791,1.305-1.316,1.879-2.775,3.032-6.556,3.222-9.21,3.664l-2.522.024c.003-3.676.008-7.306.014-9.442.932-.576,1.498-1.587,1.498-2.688,0-1.881-.001-4.165-.001-5.588,0,0,0-1.502,0-3.713-5.424,3.006-10.393,5.401-16.773,6.785-1.444.313-3.83.365-5.289.133-2.053-.326-4.311-1.156-5.444-2.556,0,0-6.147-3.531-15.886-9.127l.458-.129s1.607-12.97,7.989-14.775Z"/><g id="p"><path class="v" d="M254.236,250.56c-.931.537-30.089,17.375-31.512,18.197-.634-.366-21.312-12.317-21.81-12.604,2.73-1.578,28.101-16.229,31.51-18.197.581.336,21.332,12.326,21.812,12.603,0,0,0,0,0,.001Z"/></g><path class="w" d="M251.278,262.763c0-1.282-.221-2.59-.879-3.437-.759-.979-1.761-1.744-2.942-2.117-1.626-.515-3.361.166-5.051-.561-1.19-.512-2.127-1.45-3.422-1.473-1.135-.02-2.008.423-2.722,1.306-.892,1.103-2.472,3.722-3.514,5.639l-.532.978c.211.066.444.15.602.298,2.649,2.468,5.298,4.936,7.948,7.404.02.019.04.038.057.061,1.747-.452,6.204-2.081,8.386-3.773.471-.365.929-.832,1.254-1.331.481-.74.766-1.613.804-2.495.007-.165.011-.332.011-.499Z"/><path class="s" d="M227.284,264.405c-.686.196-1.317.4-1.869.68-.197.1-.42.188-.634.134-.245-.062-.402-.294-.533-.51-3.897-6.427-4.953-14.595-10.943-21.061-2.133-2.068-3.588-2.717-6.265-4.004-4.809-2.312-9.208-4.162-14.516-4.702-1.416-.144-2.868.094-4.253.587-2.667,1.232-5.845,3.589-7.395,6.521-3.607,6.824-4.16,17.231-4.194,22.391,0,3.333-.054,7.915.952,9.695,5.665,10.021,11.61,10.264,16.44,13.063,1.127.66,3.565,1.62,4.835,1.9,5.81,1.34,10.93,1.57,15.639-.51.572-.24,1.143-.55,1.429-1.08.244-.46.202-1.02.168-1.55-.193-2.829-.404-5.658-.611-8.454.466.507.978,1.006,1.572,1.511,2.095,1.778,5.195,3.091,7.939,3.231,3.586.183,7.21-1.644,10.407-4.143,2.034-1.59,3.797-3.491,5.499-5.433.203-.232.416-.486.439-.794.033-.428-.308-.783-.622-1.076-2.649-2.468-5.298-4.936-7.948-7.404-.183-.171-.465-.257-.706-.329-.364-.108-.815-.01-1.025.086-1.341.614-2.65.922-3.805,1.252Z"/><path class="ab" d="M161.385,310.909c0,8.289-.008,16.578-.008,24.867,0,2.574,4,2.578,4,0,0-8.289.008-16.578.008-24.867,0-2.574-4-2.578-4,0h0Z"/><path class="ab" d="M191.14,329.042v23.909c0,2.574,4,2.578,4,0v-23.909c0-2.574-4-2.578-4,0h0Z"/><path class="s" d="M239.901,319.85c-.572-.472-1.239-.813-2.017-.999-1.509-.362-3.776-.337-5.809-.044-.279.454-.642.87-1.01,1.271-2.901,3.17-6.901,3.234-9.564,3.726-.003,3.208-.006,6.457-.008,9.086,1.251.8,2.804,1.196,4.301,1.139,1.987-.077,3.88-.822,5.717-1.583,3.266-1.353,6.608-2.864,8.944-5.518.212-.241.417-.497.602-.765.558-.805.738-1.679.674-2.641-.045-.686-.218-1.64-.583-2.222-.356-.567-.768-1.055-1.248-1.451Z"/><path class="ab" d="M219.508,313.824c0,7.317-.016,14.635-.016,21.952,0,2.574,4,2.578,4,0,0-7.317.016-14.635.016-21.952,0-2.574-4-2.578-4,0h0Z"/><path class="z" d="M163.377,297.407c.005-12.285.013-27.542.013-32.483,0-1.296,1.376-2.112,2.512-1.488,6.112,3.392,18.064,10.32,24.592,14.224,1.552.928,2.512,2.592,2.512,4.4v32.523c-9.202-5.425-20.661-12.068-29.629-17.176Z"/><path class="ab" d="M195.095,203.912c-1.127.484-2.219,1.075-3.261,1.772-2.09,1.399-3.919,3.205-5.221,5.366-2.453,4.072-2.912,9.13-2.007,13.797.577,2.977,1.729,5.926,3.825,8.118,5.372,5.614,15.213,5.817,22.184,3.701.024-.007.049-.015.073-.022.106-.033.211-.066.317-.101-.622-3.473-1.141-7.346-.36-10.841.431-1.927,1.443-3.633,2.947-4.912,2.127-1.808,4.159-1.893,7.516-1.59-.311-4.004-1.65-7.866-4.377-10.88-.404-.446-.831-.87-1.279-1.272-5.652-5.075-13.615-6.029-20.356-3.136Z"/><path class="aa" d="M154.888,195.323c-6.02,3.476-12.04,7.191-18.06,10.666,7.921,4.574,15.842,9.148,23.751,13.71,6.089-3.516,12.178-7.031,18.267-10.547l-23.958-13.829Z"/><path class="y" d="M178.845,209.152c-7.978-4.601-15.968-9.215-23.958-13.829v-22.382c7.978,4.614,15.98,9.215,23.958,13.829v22.382"/><path class="z" d="M145.033,257.018v11.799c-5.39,3.109-20.486,11.776-25.474,14.659-1.41.815-3.714.814-5.124,0-5.409-3.124-17.902-10.339-24.991-14.433-1.57-.907-2.528-2.569-2.528-4.382v-12.582l58.117,4.939Z"/><path class="u" d="M116.548,261.6c1.133,1.4,3.72,2.373,5.773,2.699,1.459.232,3.845.18,5.289-.133,6.634-1.439,11.743-3.971,17.423-7.147,0,1.415,0,2.954,0,4.458l.504-.243c3.102-1.423,7.623-3.258,11.011-4.764.75-.333,1.216-1.094,1.18-1.914-.043-.988-.089-1.964-.137-2.924-1.088-6.584-6.379-10.206-12.464-11.493l-6.179-1.72-22.661-1.894.261,25.077Z"/><path class="s" d="M145.231,288.671c-.068-.045-.135-.091-.201-.139.002-2.302.005-5.159.007-8.073,1.287-.053,2.653-.1,3.837-.159,1.473-.073,3.051-.184,4.208-1.098.35-.276.85-1.52,1.049-2.565.049-.298.097-.595.144-.892,1.316-.388,4.466.039,5.763.35,1.284.308,2.331,1.315,3.032,2.434.328.524.384,1.113.425,1.73.057.865-.103,1.687-.605,2.41-.167.241-.351.471-.542.688-2.1,2.386-5.104,3.744-8.04,4.96-1.652.684-3.354,1.354-5.14,1.423-1.374.053-2.799-.319-3.938-1.069Z"/><path class="w" d="M154.006,277.182c.049-.183.092-.367.125-.545.745-4.523,1.232-8.94,1.608-13.837.125-1.63.17-3.984.284-5.615l.035-.501c-3.322,1.462-7.566,3.192-10.522,4.548l-.503.231c.002,2.755.005,5.099.005,7.38,0,2.961-.003,7.351-.005,11.617,1.287-.053,2.655-.1,3.84-.159,1.473-.073,3.051-.184,4.208-1.098.29-.229.684-1.125.923-2.02Z"/><path class="ab" d="M143.046,268.869c0,7.317-.016,14.635-.016,21.952,0,2.574,4,2.578,4,0,0-7.317.016-14.635.016-21.952,0-2.574-4-2.578-4,0h0Z"/><path class="w" d="M163.058,216.237c.987-.105,1.948-.367,2.926-.191,1.135.204,2.151.791,2.969,1.604.801.796,1.157,2.202,1.271,3.531.07.818-.089,1.659-.444,2.399-.24.5-.608.986-.999,1.379-1.625,1.633-4.903,4.058-6.688,5.008-.116-.208-.3-.39-.475-.553-2.649-2.468-5.298-4.936-7.948-7.404-.183-.171-.465-.257-.706-.329-.086-.026-.177-.04-.269-.043l.847-1.393,2.077-3.374c.554-.9,1.251-1.895,2.301-2.013,1.199-.134,2.174.942,3.334,1.273.616.176,1.215.169,1.804.106Z"/><path class="t" d="M145.03,223.132c.061.104.123.207.185.31.131.216.288.449.533.51.214.054.437-.034.634-.134,1.481-.752,3.537-.953,5.674-1.932.21-.096.661-.194,1.025-.086.24.071.522.158.706.329,2.649,2.468,5.298,4.936,7.948,7.404.314.293.654.648.622,1.076-.023.307-.236.562-.439.794-1.701,1.942-3.464,3.843-5.499,5.433-3.197,2.499-6.822,4.326-10.407,4.143-2.385-.122-5.038-1.129-7.062-2.562.104,1.432.206,2.868.304,4.303.034.53.076,1.09-.168,1.55-.286.53-.858.84-1.429,1.08-4.708,2.08-9.829,1.85-15.639.51-1.27-.28-3.708-1.24-4.835-1.9-4.088-2.37-13.869-7.036-18.144-13.992-1.347-2.193-1.391-8.608-1.159-12.461.39-5.284,1.414-11.899,3.964-16.724,1.55-2.932,4.728-5.289,7.395-6.521,1.193-.664,2.837-.731,4.253-.587,5.308.541,9.708,2.39,14.516,4.702,2.677,1.287,4.132,1.936,6.265,4.004.089.096.178.193.265.291,5.664,6.315,6.804,14.18,10.494,20.461Z"/><path class="ab" d="M84.924,265.953c0,8.289-.008,16.578-.008,24.867,0,2.574,4,2.578,4,0,0-8.289.008-16.578.008-24.867,0-2.574-4-2.578-4,0h0Z"/><path class="ab" d="M114.678,284.087v23.909c0,2.574,4,2.578,4,0v-23.909c0-2.574-4-2.578-4,0h0Z"/><path class="z" d="M86.919,252.451c.005-12.285.013-27.542.013-32.483,0-1.296,1.376-2.112,2.512-1.488,6.112,3.392,18.064,10.32,24.592,14.224,1.552.928,2.512,2.592,2.512,4.4v32.523c-9.202-5.425-20.661-12.068-29.629-17.176Z"/><path class="w" d="M130.399,195.215c2.672-.823,5.208-2.278,6.946-4.467,2.582-3.253,3.412-8.03,3.153-12.091-.254-3.983-2.17-7.133-4.878-10.125-.39-.431-.804-.842-1.237-1.23-6.38-5.728-15.181-6.736-22.216-2.027-2.021,1.353-3.79,3.1-5.049,5.189-2.372,3.938-2.816,8.829-1.941,13.343.558,2.879,1.672,5.731,3.699,7.851,5.195,5.43,14.712,5.626,21.454,3.579.024-.007.047-.014.071-.022Z"/><path class="ab" d="M111.839,164.671c-.857.528-1.615,1.113-2.302,1.741-3.583,3.278-5.167,7.833-5.647,10.55-1.16,6.565-.689,10.2-.103,13.7.266,1.592,1.137,3.545,1.958,4.667.926,1.264,2.941,2.651,4.375,3.282,8.727,3.839,15.81,2.256,19.099.607.755-.379,1.612-.675,2.084-1.348-.719-3.969-1.854-8.969-.875-13.353.416-1.863,1.395-3.513,2.85-4.75,2.086-1.773,4.077-1.833,7.406-1.525-.599-4.431-2.793-8.645-6.126-11.633-4.685-4.199-11.059-5.429-17.155-4.105-2.252.489-4.06,1.238-5.565,2.166Z"/><path class="y" d="M92.553,61.09c-7.852,4.534-15.704,9.069-23.556,13.604-1.408.813-2.816,1.626-4.224,2.44-2.228,1.288-.216,4.746,2.019,3.454,7.729-4.468,15.46-8.93,23.191-13.394,1.53-.883,3.059-1.767,4.589-2.65,2.229-1.287.217-4.745-2.019-3.454h0Z"/><path class="y" d="M90.887,75.22c-7.852,4.534-15.704,9.069-23.556,13.604-1.408.813-2.816,1.626-4.224,2.44-2.228,1.288-.216,4.746,2.019,3.454,7.729-4.468,15.46-8.93,23.191-13.394,1.53-.883,3.059-1.767,4.589-2.65,2.229-1.287.217-4.745-2.019-3.454h0Z"/><g id="q"><path class="y" d="M260.443,239.888c-.643-.371-20.799-12.011-21.783-12.579-.438.253-14.732,8.514-15.076,8.713,1.887,1.091,19.425,11.218,21.781,12.579.402-.232,14.745-8.52,15.078-8.712,0,0,0,0,0,0Z"/></g><path class="w" d="M22.1,81.991c11.502-3.451,18-.292,19.917,4.208.958,1.708,1.917,4,2.292,5.5.248.991.417,2.426.527,3.623.03.323.055.629.076.904.38,4.908-1.373,9.945-4.718,13.557-3.345,3.612-8.232,5.746-13.155,5.744-5.211-.002-10.38-2.398-13.722-6.409-2.231-.069-3.495-.046-5.332-.86-1.689-.749-3.134-2.183-3.72-3.992-.587-1.809-.212-3.97,1.092-5.314.857-.884,1.459-1.249,2.933-1.53,0,0-.939-8.513,6.728-12.263,1.876-.918,4.583-2.417,7.083-3.167Z"/><path class="ab" d="M40.15,82.299c-1.727-2.732-4.174-5.057-6.939-6.253-4.111-1.778-6.767-1.76-10.278-1.639-4.247.147-8.121,1.77-11.542,4.292-4.414,3.254-8.181,10.847-6.125,18.403,0,0,.154.565.416,1.527.704-.657,1.326-.964,2.606-1.209l6.061-2.763c4.392-1.24,8.723-3.141,12.744-5.281,1.859-.989,4.241-3.334,6.35-3.552,1.165-.12,2.326.662,3.36,1.087,1.423.585,2.903,1.224,4.442,1.408.436.052.884.061,1.323.017-.369-2.048-1.22-4.141-2.419-6.038Z"/><path class="ab" d="M34.597,94.802c.021.143.233,1.571,1.474,2.241.813.44,1.577.249,1.816.185.185-.049,1.382-.392,1.839-1.649.433-1.191.054-2.796-1.1-3.597-1.197-.831-2.65-.447-3.411.481-.685.836-.706,1.61-.618,2.338Z"/><path class="ab" d="M23.096,99.104c.021.143.233,1.571,1.474,2.241.813.44,1.577.249,1.816.185.185-.049,1.382-.392,1.839-1.649.433-1.191.054-2.796-1.1-3.597-1.197-.831-2.65-.447-3.411.481-.685.836-.706,1.61-.618,2.338Z"/><path class="u" d="M320.589,169.303c-1.402-.246-2.766-.46-3.989-.613-6.227-.778-12.324,3.257-12.324,3.257-5.889,4.427-10.09,11.047-11.589,18.26l.357,3.417c2.267-1.908,5.238-2.334,8.88-.459.977.503,2.253,2.333,2.25,3.724,0,.05,0,.099-.001.148,7.357,4.247,14.549,8.4,21.435,12.377l-.231,1.246c1.338,1.723,5.311,6.636,7.672,10.006,2.026-1.142,4.669-2.432,7.221-3.962,4.167-2.493,8.13-5.645,8.949-9.875.347-1.817.205-3.686-.027-5.521-.801-6.474-2.333-14.737-6.367-20.062-2.458-3.259-6.34-7.462-10.124-9.403,0,0-6.377-1.534-12.113-2.541Z"/><path class="w" d="M290.069,199.641c.008-2.756.953-4.314,2.975-6.016,2.267-1.908,5.238-2.334,8.88-.459.977.503,2.253,2.333,2.25,3.724-.006,3.488-1.971,4.442-5.892,4.359-3.487-.074-6.363,3.852-7.752.653-.322-.742-.464-1.503-.461-2.261Z"/><path class="w" d="M304.404,154.526c-.187,5.159,1.452,10.396,4.881,14.277,1.365,1.545,2.983,2.869,4.791,3.863,5.958,3.276,13.842,2.709,19.222-1.383.563-.428,1.258-.633,1.964-.675,1.987-.118,4.107-.883,5.665-2.133,1.706-1.369,2.803-3.679,2.466-5.785-.145-.909-.588-1.732-1.212-2.383-.812-.848-1.139-2.077-.866-3.219,1.539-6.434-.852-13.577-6.513-17.599-7.919-5.626-19.112-4.852-25.619,2.551-3.03,3.447-4.616,7.937-4.781,12.486Z"/><path class="ab" d="M308.678,142.643c-1.344,1.672-2.37,3.56-3.081,5.564s.344,4.242,2.387,4.85c3.573,1.062,7.038.769,10.602.264,1.779-.158,4.357-.876,6.563-1.664,1.635-.584,3.248.117,3.926,1.819.361.907.76,2.179,1.23,3.379.775,1.978,3.062,2.89,4.996,2.01l.077-.035c1.241-.565,2.692-.405,3.78.417h0s.557.421,1.121.847c3.255-7.085,1.086-15.942-5.476-20.604-7.919-5.626-19.112-4.852-25.619,2.551-.174.198-.343.399-.507.603Z"/><path class="ab" d="M314.632,161.001c-.008.13-.089,1.424-1.148,2.12-.695.456-1.393.344-1.612.305-.169-.03-1.268-.246-1.773-1.336-.479-1.033-.262-2.5.71-3.306,1.008-.836,2.339-.603,3.091.17.677.696.755,1.388.732,2.047Z"/><path class="ab" d="M325.453,163.211c-.008.13-.089,1.424-1.148,2.12-.695.456-1.393.344-1.612.305-.169-.03-1.268-.246-1.773-1.336-.479-1.033-.262-2.5.71-3.306,1.008-.836,2.339-.603,3.091.17.677.696.755,1.388.732,2.047Z"/><g id="r"><path class="u" d="M226.876,152.398c6.645,3.837,13.595,7.851,20.72,11.966l-.092,1.352c1.249-.004,2.363.056,2.866.113l.754.085c.891,2.664,2.288,6.448,3.136,9.593,2.026-1.142,4.669-2.432,7.221-3.962,4.167-2.493,8.13-5.645,8.949-9.875.347-1.817.205-3.686-.027-5.521-.801-6.474-2.333-14.737-6.367-20.062-2.458-3.259-6.34-7.462-10.124-9.403,0,0-10.529-2.549-16.694-3.661-6.165-1.111-11.731,3.764-11.731,3.764-5.889,4.427-10.09,11.047-11.589,18.26l.357,3.417c2.267-1.908,5.238-2.334,8.88-.459.977.503,2.253,2.333,2.25,3.724l1.491.539"/></g><path class="w" d="M211.28,154.481c.008-2.756.953-4.314,2.975-6.016,2.267-1.908,5.238-2.334,8.88-.459.977.503,2.253,2.333,2.25,3.724-.006,3.488-1.971,4.442-5.892,4.359-3.487-.074-6.363,3.852-7.752.653-.322-.742-.464-1.503-.461-2.261Z"/><path class="w" d="M234.858,93.923c6.405-3.976,14.909-3.643,21.271.877,6.212,4.414,8.433,12.638,5.772,19.473,1.369.614,2.461,1.895,2.704,3.418.332,2.078-.75,4.357-2.433,5.707-1.834,1.471-4.456,2.262-6.707,2.097-5.299,4.641-13.596,5.442-19.786,2.038-1.784-.981-3.381-2.287-4.727-3.812-6.367-7.205-6.479-19.146-.099-26.405,1.192-1.356,2.544-2.487,4.005-3.394Z"/><path class="ab" d="M236.272,93.132c-2.006,1.007-3.851,2.401-5.419,4.186-2.302,2.619-3.758,5.846-4.381,9.241,4.891,2.797,9.47,2.501,14.225,1.827,1.779-.158,4.357-.876,6.563-1.664,1.635-.584,3.248.117,3.926,1.819.361.907.76,2.179,1.23,3.379.775,1.978,3.062,2.89,4.996,2.01l.385-.175c1.241.063,2.514.128,2.514.128,2.053.105,3.963,1.73,4.296,3.808.332,2.078-.75,4.357-2.433,5.707-.199.159-.407.311-.622.454.77.635,1.638,1.134,2.578,1.452,1.846.629,3.908.553,5.717-.179.342-.144.679-.311.998-.493,2.008-1.175,3.458-3.257,3.871-5.547-1.082-.25-2.237-.549-2.946-1.395-.964-1.128-.792-2.792-.813-4.267-.031-1.615-.869-3.055-2.086-4.103-1.393-1.206-4.415-1.586-5.802-1.481,0,0-.026.002-.066.005-.144-5.026-2.535-9.964-6.872-13.045-5.904-4.194-13.653-4.783-19.857-1.669Z"/><path class="ab" d="M237.214,116.025c-.007.128-.087,1.405-1.133,2.092-.686.45-1.374.339-1.591.301-.167-.03-1.251-.242-1.749-1.318-.472-1.019-.258-2.467.701-3.262.995-.824,2.308-.595,3.05.168.668.687.745,1.369.722,2.019Z"/><path class="ab" d="M247.891,118.206c-.007.128-.087,1.405-1.133,2.092-.686.45-1.374.339-1.591.301-.167-.03-1.251-.242-1.749-1.318-.472-1.019-.258-2.467.701-3.262.995-.824,2.308-.595,3.05.168.668.687.745,1.369.722,2.019Z"/><path class="v" d="M226.772,108.802c.983.382,8.22.098,12.79-.758,2.476-.464,5.302-1.428,7.722-2.573.807-.382,1.766-.243,2.431.353,2.013,1.805,3.654,4.029,4.793,6.486.52,1.122,1.841,1.629,2.958,1.096.617-.294,1.279-.494,1.957-.586"/><path class="aa" d="M325.456,222.682c-6.578-3.799-13.156-7.597-19.726-11.396v22.456c.095.055.19.11.286.165,6.478-3.744,12.963-7.481,19.44-11.226Z"/><path class="y" d="M305.731,206.423c-9.481-5.474-18.962-10.948-28.443-16.422v27.323c4.089,2.361,8.178,4.722,12.268,7.083,5.39,3.112,10.781,6.224,16.174,9.335v-27.32Z"/><path class="w" d="M332.931,220.248c-5.61,3.83-13.15,4.88-15.53,2.19-1.22-1.38-1.06-5.12.58-7.23.83-1.07,2.52-2.76,4.04-3.59,1.51-.83,3.19-1.07,4.42-.93"/></g></svg>