<svg width="1500" height="1300" viewBox="0 0 1500 1300" fill="none" xmlns="http://www.w3.org/2000/svg">
<g clip-path="url(#clip0_4985_81)">
<rect width="1500" height="1300" rx="50" fill="white"/>
<rect x="230" y="224" width="636" height="64" fill="#FFF821" fill-opacity="0.4"/>
<rect x="747" y="364" width="636" height="64" fill="#FFF821" fill-opacity="0.4"/>
<path d="M255.6 232.2H344.8V242.1H255.6V232.2ZM255.9 187.4H344.5V197.2H255.9V187.4ZM260 205.3H340.6V214.7H260V205.3ZM264.9 219.1H336V227.8H264.9V219.1ZM293.9 210H305.8V265H293.9V210ZM285.2 170.9H296.4V192.1H285.2V170.9ZM303.8 170.9H315.1V191.4H303.8V170.9ZM291.7 236.6L301.2 240.9C298.067 244.367 294.267 247.6 289.8 250.6C285.4 253.533 280.667 256.1 275.6 258.3C270.533 260.567 265.433 262.4 260.3 263.8C259.767 262.8 259.033 261.667 258.1 260.4C257.233 259.2 256.3 258 255.3 256.8C254.367 255.6 253.467 254.6 252.6 253.8C257.6 252.733 262.567 251.367 267.5 249.7C272.5 248.033 277.1 246.067 281.3 243.8C285.5 241.533 288.967 239.133 291.7 236.6ZM308.2 236.3C310.267 238.3 312.733 240.2 315.6 242C318.467 243.733 321.6 245.333 325 246.8C328.467 248.2 332.1 249.433 335.9 250.5C339.767 251.567 343.667 252.4 347.6 253C346.667 253.933 345.667 255 344.6 256.2C343.6 257.467 342.633 258.767 341.7 260.1C340.833 261.5 340.1 262.767 339.5 263.9C335.5 262.9 331.567 261.6 327.7 260C323.9 258.467 320.267 256.7 316.8 254.7C313.333 252.7 310.067 250.467 307 248C303.933 245.533 301.233 242.9 298.9 240.1L308.2 236.3ZM326.8 171.8L339.3 174.8C337.767 177.533 336.2 180.2 334.6 182.8C333 185.333 331.533 187.5 330.2 189.3L320.4 186.3C321.2 184.967 322 183.467 322.8 181.8C323.6 180.067 324.333 178.333 325 176.6C325.733 174.8 326.333 173.2 326.8 171.8ZM313.6 193.2L326.3 196.2C324.9 198.533 323.567 200.8 322.3 203C321.033 205.133 319.9 206.967 318.9 208.5L308.7 205.7C309.567 203.833 310.467 201.767 311.4 199.5C312.333 197.167 313.067 195.067 313.6 193.2ZM263 175L273.3 171.5C274.767 173.567 276.233 175.967 277.7 178.7C279.167 181.367 280.233 183.667 280.9 185.6L270.1 189.6C269.567 187.6 268.6 185.233 267.2 182.5C265.8 179.767 264.4 177.267 263 175ZM275.7 197.4L287.4 195.5C288.267 196.9 289.1 198.5 289.9 200.3C290.767 202.033 291.4 203.567 291.8 204.9L279.6 207C279.267 205.733 278.733 204.167 278 202.3C277.267 200.433 276.5 198.8 275.7 197.4ZM355.4 175.6H388.1V185.7H355.4V175.6ZM395.4 227.1H436V237H395.4V227.1ZM354 206.2H391.2V216.6H354V206.2ZM370.3 210.5H381.6V252C381.6 254.733 381.3 256.933 380.7 258.6C380.167 260.267 379.033 261.567 377.3 262.5C375.567 263.367 373.533 263.933 371.2 264.2C368.867 264.467 366.167 264.6 363.1 264.6C362.9 262.933 362.467 261 361.8 258.8C361.133 256.667 360.4 254.8 359.6 253.2C361.533 253.267 363.367 253.3 365.1 253.3C366.833 253.3 368.033 253.3 368.7 253.3C369.3 253.233 369.7 253.133 369.9 253C370.167 252.8 370.3 252.4 370.3 251.8V210.5ZM432.2 227.1H444.3C444.3 227.1 444.267 227.667 444.2 228.8C444.133 229.867 444.033 230.8 443.9 231.6C443.433 237.4 442.867 242.2 442.2 246C441.6 249.733 440.933 252.733 440.2 255C439.467 257.2 438.6 258.833 437.6 259.9C436.533 261.033 435.4 261.833 434.2 262.3C433.067 262.833 431.767 263.233 430.3 263.5C429.1 263.633 427.5 263.7 425.5 263.7C423.5 263.767 421.333 263.767 419 263.7C418.933 261.967 418.6 260.067 418 258C417.467 255.933 416.733 254.133 415.8 252.6C417.6 252.8 419.267 252.933 420.8 253C422.4 253.067 423.6 253.1 424.4 253.1C425.2 253.1 425.833 253.033 426.3 252.9C426.767 252.7 427.233 252.4 427.7 252C428.3 251.4 428.867 250.267 429.4 248.6C429.933 246.867 430.433 244.367 430.9 241.1C431.367 237.833 431.8 233.667 432.2 228.6V227.1ZM411 218.1H422.9C422.433 223.233 421.733 228.133 420.8 232.8C419.933 237.4 418.467 241.7 416.4 245.7C414.333 249.7 411.433 253.333 407.7 256.6C404.033 259.867 399.233 262.667 393.3 265C392.633 263.6 391.633 261.967 390.3 260.1C388.967 258.3 387.667 256.833 386.4 255.7C391.6 253.833 395.733 251.6 398.8 249C401.933 246.333 404.3 243.4 405.9 240.2C407.567 237 408.733 233.533 409.4 229.8C410.133 226.067 410.667 222.167 411 218.1ZM357.7 196.4L365.2 188.7C367.933 189.7 370.833 190.9 373.9 192.3C377.033 193.7 380 195.133 382.8 196.6C385.667 198.067 388.067 199.5 390 200.9L381.9 209.5C380.167 208.1 377.933 206.633 375.2 205.1C372.467 203.5 369.533 201.933 366.4 200.4C363.333 198.867 360.433 197.533 357.7 196.4ZM388.3 206.2H389.8L391.4 205.7L398.7 208C397.9 212.533 396.867 217.2 395.6 222C394.4 226.8 393.133 230.9 391.8 234.3L383.7 230.5C384.633 227.567 385.5 224 386.3 219.8C387.167 215.6 387.833 211.633 388.3 207.9V206.2ZM428.3 186.1L440.8 188C438.6 194.133 435.5 199.4 431.5 203.8C427.567 208.133 422.9 211.733 417.5 214.6C412.1 217.467 406.1 219.833 399.5 221.7C399.1 220.833 398.433 219.767 397.5 218.5C396.633 217.233 395.7 216 394.7 214.8C393.767 213.533 392.9 212.533 392.1 211.8C398.233 210.533 403.733 208.8 408.6 206.6C413.533 204.4 417.667 201.633 421 198.3C424.4 194.9 426.833 190.833 428.3 186.1ZM408.4 170.9L419.5 174.1C417.9 177.633 415.967 181.1 413.7 184.5C411.433 187.9 409.033 191.1 406.5 194.1C404.033 197.033 401.5 199.567 398.9 201.7C398.167 201.033 397.2 200.3 396 199.5C394.8 198.633 393.6 197.8 392.4 197C391.2 196.2 390.133 195.533 389.2 195C393.133 192.2 396.8 188.667 400.2 184.4C403.6 180.067 406.333 175.567 408.4 170.9ZM409.7 188.7C412.033 192.433 415.067 195.833 418.8 198.9C422.6 201.967 426.967 204.6 431.9 206.8C436.9 208.933 442.3 210.567 448.1 211.7C447.3 212.433 446.4 213.433 445.4 214.7C444.467 215.9 443.567 217.133 442.7 218.4C441.833 219.667 441.1 220.8 440.5 221.8C434.367 220.267 428.733 218.1 423.6 215.3C418.533 212.5 413.967 209.133 409.9 205.2C405.9 201.267 402.533 196.8 399.8 191.8L409.7 188.7ZM369.2 209.8L376.9 212.7C375.633 217.1 374.033 221.6 372.1 226.2C370.233 230.8 368.1 235.067 365.7 239C363.3 242.933 360.667 246.233 357.8 248.9C357.267 247.167 356.433 245.2 355.3 243C354.233 240.8 353.233 238.9 352.3 237.3C354.7 235.167 356.967 232.6 359.1 229.6C361.3 226.6 363.267 223.4 365 220C366.733 216.533 368.133 213.133 369.2 209.8ZM408.1 181.2H445.5V191.1H403.3L408.1 181.2ZM385.3 175.6H387.8L389.7 175.2L397.3 179.9C395.833 182.3 394.033 184.767 391.9 187.3C389.767 189.833 387.467 192.233 385 194.5C382.6 196.7 380.2 198.633 377.8 200.3C376.733 199.3 375.433 198.267 373.9 197.2C372.433 196.133 371.1 195.233 369.9 194.5C372.033 193.033 374.067 191.333 376 189.4C378 187.4 379.8 185.367 381.4 183.3C383.067 181.233 384.367 179.367 385.3 177.7V175.6ZM509.1 187.5C508.433 192.567 507.567 197.967 506.5 203.7C505.433 209.433 504 215.233 502.2 221.1C500.267 227.833 498 233.633 495.4 238.5C492.8 243.367 489.933 247.133 486.8 249.8C483.733 252.4 480.367 253.7 476.7 253.7C473.033 253.7 469.633 252.467 466.5 250C463.433 247.467 460.967 244 459.1 239.6C457.3 235.2 456.4 230.2 456.4 224.6C456.4 218.8 457.567 213.333 459.9 208.2C462.233 203.067 465.467 198.533 469.6 194.6C473.8 190.6 478.667 187.467 484.2 185.2C489.8 182.933 495.833 181.8 502.3 181.8C508.5 181.8 514.067 182.8 519 184.8C524 186.8 528.267 189.567 531.8 193.1C535.333 196.633 538.033 200.767 539.9 205.5C541.767 210.233 542.7 215.333 542.7 220.8C542.7 227.8 541.267 234.067 538.4 239.6C535.533 245.133 531.267 249.7 525.6 253.3C520 256.9 513 259.367 504.6 260.7L497.1 248.8C499.033 248.6 500.733 248.367 502.2 248.1C503.667 247.833 505.067 247.533 506.4 247.2C509.6 246.4 512.567 245.267 515.3 243.8C518.1 242.267 520.533 240.4 522.6 238.2C524.667 235.933 526.267 233.3 527.4 230.3C528.6 227.3 529.2 224 529.2 220.4C529.2 216.467 528.6 212.867 527.4 209.6C526.2 206.333 524.433 203.5 522.1 201.1C519.767 198.633 516.933 196.767 513.6 195.5C510.267 194.167 506.433 193.5 502.1 193.5C496.767 193.5 492.067 194.467 488 196.4C483.933 198.267 480.5 200.7 477.7 203.7C474.9 206.7 472.767 209.933 471.3 213.4C469.9 216.867 469.2 220.167 469.2 223.3C469.2 226.633 469.6 229.433 470.4 231.7C471.2 233.9 472.167 235.567 473.3 236.7C474.5 237.767 475.767 238.3 477.1 238.3C478.5 238.3 479.867 237.6 481.2 236.2C482.6 234.733 483.967 232.533 485.3 229.6C486.633 226.667 487.967 222.967 489.3 218.5C490.833 213.7 492.133 208.567 493.2 203.1C494.267 197.633 495.033 192.3 495.5 187.1L509.1 187.5ZM562.8 175.1H574.6V204.6C574.6 209 574.433 213.8 574.1 219C573.833 224.2 573.3 229.533 572.5 235C571.7 240.4 570.533 245.633 569 250.7C567.467 255.767 565.433 260.367 562.9 264.5C562.167 263.9 561.167 263.2 559.9 262.4C558.633 261.6 557.333 260.833 556 260.1C554.667 259.367 553.467 258.833 552.4 258.5C554.8 254.633 556.7 250.433 558.1 245.9C559.5 241.3 560.533 236.6 561.2 231.8C561.867 226.933 562.3 222.2 562.5 217.6C562.7 212.933 562.8 208.6 562.8 204.6V175.1ZM570.2 175.1H640.2V198.9H570.2V189.8H628.2V184.2H570.2V175.1ZM602.7 203.9H613.6V252.8H602.7V203.9ZM590.8 220.3V225.1H625.8V220.3H590.8ZM580.2 213.7H637.1V231.7H580.2V213.7ZM576.2 235.5H636.9V243.3H587.1V265H576.2V235.5ZM630.7 235.5H641.7V255.7C641.7 257.967 641.433 259.667 640.9 260.8C640.433 262 639.433 262.933 637.9 263.6C636.5 264.2 634.767 264.567 632.7 264.7C630.633 264.833 628.233 264.9 625.5 264.9C625.3 263.567 624.9 262.167 624.3 260.7C623.767 259.3 623.233 258 622.7 256.8C624.1 256.867 625.433 256.9 626.7 256.9C627.967 256.967 628.833 256.967 629.3 256.9C629.833 256.9 630.2 256.833 630.4 256.7C630.6 256.567 630.7 256.233 630.7 255.7V235.5ZM589.2 249.5C593.667 249.367 598.933 249.2 605 249C611.133 248.8 617.433 248.567 623.9 248.3L623.8 255.9C617.733 256.233 611.733 256.567 605.8 256.9C599.933 257.233 594.667 257.533 590 257.8L589.2 249.5ZM630 199.4L636.7 206.1C633.033 206.9 628.933 207.6 624.4 208.2C619.933 208.8 615.2 209.3 610.2 209.7C605.267 210.1 600.3 210.4 595.3 210.6C590.3 210.733 585.5 210.8 580.9 210.8C580.767 209.8 580.467 208.6 580 207.2C579.533 205.733 579.067 204.5 578.6 203.5C583.133 203.433 587.767 203.333 592.5 203.2C597.3 203 602 202.733 606.6 202.4C611.2 202.067 615.5 201.667 619.5 201.2C623.567 200.667 627.067 200.067 630 199.4ZM617 245.6L623.9 243.9C624.633 245.367 625.333 246.933 626 248.6C626.733 250.267 627.367 251.9 627.9 253.5C628.433 255.1 628.833 256.5 629.1 257.7L621.9 259.8C621.633 258.533 621.267 257.1 620.8 255.5C620.333 253.9 619.767 252.233 619.1 250.5C618.433 248.767 617.733 247.133 617 245.6ZM691.6 173.4H705.4C705.267 176.2 705.033 179.8 704.7 184.2C704.367 188.6 703.733 193.5 702.8 198.9C701.933 204.233 700.6 209.833 698.8 215.7C697 221.567 694.533 227.433 691.4 233.3C688.333 239.1 684.4 244.667 679.6 250C674.867 255.267 669.1 259.967 662.3 264.1C661.233 262.567 659.767 260.933 657.9 259.2C656.1 257.467 654.2 255.9 652.2 254.5C658.867 250.767 664.467 246.5 669 241.7C673.533 236.9 677.233 231.867 680.1 226.6C682.967 221.267 685.167 215.933 686.7 210.6C688.233 205.2 689.333 200.1 690 195.3C690.667 190.5 691.067 186.2 691.2 182.4C691.333 178.6 691.467 175.6 691.6 173.4ZM704.9 176.1C704.967 177.367 705.1 179.367 705.3 182.1C705.5 184.833 705.9 188.1 706.5 191.9C707.1 195.7 708 199.833 709.2 204.3C710.467 208.7 712.133 213.233 714.2 217.9C716.267 222.567 718.833 227.133 721.9 231.6C724.967 236.067 728.667 240.2 733 244C737.4 247.8 742.533 251.1 748.4 253.9C746.467 255.3 744.667 256.933 743 258.8C741.4 260.667 740.1 262.433 739.1 264.1C732.967 261.033 727.6 257.4 723 253.2C718.467 248.933 714.567 244.333 711.3 239.4C708.1 234.4 705.433 229.333 703.3 224.2C701.167 219.067 699.433 214.033 698.1 209.1C696.833 204.1 695.867 199.467 695.2 195.2C694.533 190.933 694.067 187.233 693.8 184.1C693.6 180.967 693.433 178.7 693.3 177.3L704.9 176.1ZM797.8 173.6H809.9V245.7C809.9 247.7 810 249.2 810.2 250.2C810.467 251.2 811 251.867 811.8 252.2C812.667 252.467 813.9 252.6 815.5 252.6C816.1 252.6 817.033 252.6 818.3 252.6C819.633 252.6 821.1 252.6 822.7 252.6C824.3 252.6 825.767 252.6 827.1 252.6C828.5 252.6 829.5 252.6 830.1 252.6C831.767 252.6 833 252.133 833.8 251.2C834.667 250.2 835.267 248.433 835.6 245.9C836 243.3 836.333 239.667 836.6 235C838.067 236.067 839.867 237.1 842 238.1C844.133 239.033 846.033 239.7 847.7 240.1C847.233 245.833 846.467 250.433 845.4 253.9C844.333 257.367 842.7 259.867 840.5 261.4C838.3 263 835.2 263.8 831.2 263.8C830.667 263.8 829.8 263.8 828.6 263.8C827.467 263.8 826.167 263.8 824.7 263.8C823.3 263.8 821.867 263.8 820.4 263.8C819 263.8 817.733 263.8 816.6 263.8C815.467 263.8 814.6 263.8 814 263.8C809.8 263.8 806.533 263.267 804.2 262.2C801.867 261.133 800.2 259.267 799.2 256.6C798.267 253.933 797.8 250.267 797.8 245.6V173.6ZM835.2 190.4L844 200.9C840.333 203.567 836.333 206.167 832 208.7C827.667 211.167 823.233 213.567 818.7 215.9C814.233 218.233 809.833 220.4 805.5 222.4C805.1 221 804.4 219.4 803.4 217.6C802.4 215.733 801.5 214.167 800.7 212.9C804.833 210.9 808.967 208.633 813.1 206.1C817.3 203.567 821.3 200.933 825.1 198.2C828.9 195.467 832.267 192.867 835.2 190.4ZM778.4 172.4L790.3 176.3C787.767 182.233 784.767 188.167 781.3 194.1C777.833 199.967 774.1 205.5 770.1 210.7C766.167 215.833 762.1 220.333 757.9 224.2C757.5 223.2 756.867 221.9 756 220.3C755.2 218.7 754.333 217.1 753.4 215.5C752.467 213.833 751.633 212.5 750.9 211.5C754.567 208.433 758.1 204.833 761.5 200.7C764.9 196.5 768.067 192 771 187.2C773.933 182.333 776.4 177.4 778.4 172.4ZM767.8 200.6L779.7 188.7L779.8 188.9V264.8H767.8V200.6ZM895.5 177.7C895.233 178.967 894.933 180.367 894.6 181.9C894.267 183.367 893.967 184.733 893.7 186C893.433 187.467 893.1 189.133 892.7 191C892.3 192.8 891.9 194.633 891.5 196.5C891.167 198.3 890.8 200.067 890.4 201.8C889.733 204.667 888.9 208 887.9 211.8C886.9 215.6 885.733 219.7 884.4 224.1C883.067 228.433 881.567 232.8 879.9 237.2C878.233 241.6 876.467 245.9 874.6 250.1C872.733 254.233 870.733 257.967 868.6 261.3L855.6 256.1C857.933 252.967 860.1 249.467 862.1 245.6C864.167 241.667 866.033 237.667 867.7 233.6C869.367 229.467 870.833 225.4 872.1 221.4C873.433 217.333 874.567 213.567 875.5 210.1C876.5 206.633 877.267 203.667 877.8 201.2C878.733 196.667 879.467 192.3 880 188.1C880.533 183.9 880.733 179.933 880.6 176.2L895.5 177.7ZM929.9 187.8C931.5 190 933.133 192.7 934.8 195.9C936.533 199.033 938.233 202.367 939.9 205.9C941.567 209.433 943.067 212.833 944.4 216.1C945.733 219.367 946.767 222.2 947.5 224.6L934.8 230.4C934.2 227.6 933.3 224.5 932.1 221.1C930.967 217.7 929.633 214.267 928.1 210.8C926.567 207.267 924.933 203.933 923.2 200.8C921.533 197.667 919.8 195.033 918 192.9L929.9 187.8ZM854.9 198.2C856.7 198.333 858.467 198.4 860.2 198.4C862 198.333 863.8 198.267 865.6 198.2C867.267 198.133 869.267 198.033 871.6 197.9C873.933 197.7 876.4 197.5 879 197.3C881.667 197.1 884.333 196.9 887 196.7C889.667 196.433 892.133 196.233 894.4 196.1C896.667 195.967 898.533 195.9 900 195.9C903.6 195.9 906.733 196.5 909.4 197.7C912.067 198.833 914.167 200.8 915.7 203.6C917.3 206.4 918.1 210.2 918.1 215C918.1 218.933 917.933 223.2 917.6 227.8C917.267 232.4 916.667 236.8 915.8 241C915 245.2 913.867 248.767 912.4 251.7C910.8 255.167 908.6 257.567 905.8 258.9C903.067 260.233 899.8 260.9 896 260.9C894.133 260.9 892.1 260.733 889.9 260.4C887.7 260.133 885.733 259.833 884 259.5L881.9 246.3C883.167 246.633 884.567 246.967 886.1 247.3C887.7 247.633 889.2 247.9 890.6 248.1C892.067 248.3 893.233 248.4 894.1 248.4C895.767 248.4 897.233 248.1 898.5 247.5C899.767 246.833 900.8 245.7 901.6 244.1C902.533 242.167 903.3 239.667 903.9 236.6C904.5 233.533 904.933 230.233 905.2 226.7C905.533 223.1 905.7 219.667 905.7 216.4C905.7 213.733 905.3 211.767 904.5 210.5C903.767 209.233 902.667 208.4 901.2 208C899.8 207.533 898.067 207.3 896 207.3C894.467 207.3 892.4 207.433 889.8 207.7C887.2 207.9 884.4 208.167 881.4 208.5C878.467 208.767 875.733 209.067 873.2 209.4C870.667 209.733 868.7 209.967 867.3 210.1C865.833 210.367 863.967 210.667 861.7 211C859.5 211.267 857.633 211.533 856.1 211.8L854.9 198.2ZM928.1 173.9C928.967 175.1 929.867 176.533 930.8 178.2C931.8 179.867 932.767 181.533 933.7 183.2C934.633 184.867 935.433 186.333 936.1 187.6L928 191.1C927.333 189.7 926.567 188.167 925.7 186.5C924.833 184.833 923.933 183.167 923 181.5C922.067 179.833 921.133 178.4 920.2 177.2L928.1 173.9ZM940 169.4C940.867 170.667 941.8 172.133 942.8 173.8C943.8 175.467 944.767 177.133 945.7 178.8C946.7 180.467 947.467 181.867 948 183L940.1 186.4C939.033 184.333 937.767 182 936.3 179.4C934.833 176.733 933.4 174.467 932 172.6L940 169.4ZM976.6 210V246.9H965.1V221.1H953.8V210H976.6ZM976.6 242.1C978.533 245.433 981.267 247.9 984.8 249.5C988.333 251.033 992.633 251.9 997.7 252.1C1000.7 252.233 1004.3 252.333 1008.5 252.4C1012.77 252.4 1017.2 252.367 1021.8 252.3C1026.47 252.233 1031 252.133 1035.4 252C1039.87 251.8 1043.87 251.533 1047.4 251.2C1046.93 252.067 1046.43 253.233 1045.9 254.7C1045.43 256.1 1044.97 257.533 1044.5 259C1044.1 260.467 1043.8 261.767 1043.6 262.9C1040.53 263.1 1037 263.233 1033 263.3C1029 263.367 1024.87 263.4 1020.6 263.4C1016.33 263.467 1012.2 263.467 1008.2 263.4C1004.2 263.4 1000.67 263.333 997.6 263.2C991.6 262.933 986.5 261.967 982.3 260.3C978.1 258.633 974.5 255.867 971.5 252C969.567 254 967.5 255.967 965.3 257.9C963.167 259.9 960.833 261.967 958.3 264.1L952.6 252.2C954.733 250.8 956.967 249.233 959.3 247.5C961.7 245.767 964 243.967 966.2 242.1H976.6ZM954.2 180.4L963.3 173.6C965.233 175.067 967.233 176.733 969.3 178.6C971.367 180.467 973.267 182.333 975 184.2C976.733 186.067 978.133 187.833 979.2 189.5L969.3 197.1C968.367 195.433 967.067 193.633 965.4 191.7C963.8 189.7 962 187.733 960 185.8C958 183.8 956.067 182 954.2 180.4ZM1017.5 172.2L1030.7 174.6C1029.03 178.067 1027.33 181.5 1025.6 184.9C1023.87 188.233 1022.27 191.067 1020.8 193.4L1010.8 190.9C1011.67 189.1 1012.5 187.133 1013.3 185C1014.17 182.867 1014.97 180.7 1015.7 178.5C1016.43 176.233 1017.03 174.133 1017.5 172.2ZM998.6 185.4H1043V195.5H998.6V239.9H987V194.5L996.2 185.4H998.6ZM993.7 201.9H1040.3V211.5H993.7V201.9ZM993.7 218H1039.9V227.7H993.7V218ZM987 234.6H1044.7V244.6H987V234.6ZM1011.7 189.7H1023.1V239.1H1011.7V189.7ZM995 171.4L1007 174.8C1005.07 179.533 1002.73 184.167 1000 188.7C997.333 193.167 994.433 197.367 991.3 201.3C988.167 205.167 984.933 208.533 981.6 211.4C981 210.6 980.167 209.6 979.1 208.4C978.033 207.2 976.933 206 975.8 204.8C974.667 203.6 973.667 202.667 972.8 202C977.467 198.4 981.767 193.9 985.7 188.5C989.633 183.1 992.733 177.4 995 171.4ZM1071.3 180.3C1072.7 180.433 1074.17 180.567 1075.7 180.7C1077.3 180.767 1078.63 180.8 1079.7 180.8C1081.17 180.8 1082.83 180.767 1084.7 180.7C1086.63 180.633 1088.6 180.567 1090.6 180.5C1092.6 180.433 1094.5 180.333 1096.3 180.2C1098.1 180.067 1099.57 179.967 1100.7 179.9C1101.9 179.833 1103.1 179.667 1104.3 179.4C1105.57 179.133 1106.63 178.833 1107.5 178.5L1115.5 184.7C1114.83 185.5 1114.2 186.233 1113.6 186.9C1113 187.5 1112.5 188.167 1112.1 188.9C1110.97 190.767 1109.67 193.333 1108.2 196.6C1106.73 199.8 1105.17 203.267 1103.5 207C1101.9 210.733 1100.33 214.367 1098.8 217.9C1097.8 220.167 1096.77 222.567 1095.7 225.1C1094.63 227.633 1093.53 230.167 1092.4 232.7C1091.27 235.167 1090.17 237.5 1089.1 239.7C1088.03 241.833 1087 243.7 1086 245.3C1084 248.3 1081.77 250.533 1079.3 252C1076.83 253.4 1073.87 254.1 1070.4 254.1C1066 254.1 1062.33 252.667 1059.4 249.8C1056.47 246.933 1055 242.967 1055 237.9C1055 233.9 1055.9 230.167 1057.7 226.7C1059.5 223.233 1062.03 220.233 1065.3 217.7C1068.63 215.1 1072.53 213.1 1077 211.7C1081.47 210.3 1086.37 209.6 1091.7 209.6C1097.5 209.6 1103.1 210.267 1108.5 211.6C1113.9 212.933 1118.93 214.633 1123.6 216.7C1128.33 218.767 1132.57 220.933 1136.3 223.2C1140.1 225.4 1143.33 227.4 1146 229.2L1140.1 243.1C1137.1 240.3 1133.73 237.6 1130 235C1126.27 232.4 1122.27 230.033 1118 227.9C1113.8 225.7 1109.3 223.967 1104.5 222.7C1099.77 221.433 1094.83 220.8 1089.7 220.8C1084.83 220.8 1080.67 221.567 1077.2 223.1C1073.8 224.633 1071.2 226.567 1069.4 228.9C1067.6 231.167 1066.7 233.533 1066.7 236C1066.7 237.6 1067.1 238.833 1067.9 239.7C1068.77 240.567 1069.77 241 1070.9 241C1071.97 241 1072.87 240.733 1073.6 240.2C1074.33 239.667 1075.17 238.767 1076.1 237.5C1076.97 236.3 1077.8 234.867 1078.6 233.2C1079.47 231.533 1080.33 229.7 1081.2 227.7C1082.13 225.7 1083.03 223.667 1083.9 221.6C1084.83 219.533 1085.73 217.533 1086.6 215.6C1087.8 212.933 1089.03 210.167 1090.3 207.3C1091.57 204.367 1092.77 201.533 1093.9 198.8C1095.1 196.067 1096.2 193.667 1097.2 191.6C1096.2 191.667 1094.97 191.733 1093.5 191.8C1092.03 191.8 1090.47 191.833 1088.8 191.9C1087.2 191.967 1085.6 192.067 1084 192.2C1082.47 192.267 1081.13 192.333 1080 192.4C1079 192.467 1077.7 192.567 1076.1 192.7C1074.57 192.833 1073.17 193 1071.9 193.2L1071.3 180.3ZM1137.2 204C1136.8 211.067 1136.07 217.567 1135 223.5C1134 229.367 1132.37 234.733 1130.1 239.6C1127.9 244.4 1124.87 248.767 1121 252.7C1117.13 256.567 1112.2 260.067 1106.2 263.2L1095.6 254.5C1101.73 251.833 1106.63 248.767 1110.3 245.3C1114.03 241.833 1116.83 238.2 1118.7 234.4C1120.63 230.6 1121.97 226.9 1122.7 223.3C1123.43 219.633 1123.9 216.333 1124.1 213.4C1124.23 211.467 1124.3 209.567 1124.3 207.7C1124.3 205.767 1124.23 204.033 1124.1 202.5L1137.2 204ZM1175.5 262.9C1173.5 260.367 1171.27 257.8 1168.8 255.2C1166.33 252.6 1163.83 250.067 1161.3 247.6C1158.77 245.067 1156.33 242.8 1154 240.8L1164.4 231.8C1166.8 233.733 1169.37 236.033 1172.1 238.7C1174.83 241.3 1177.43 243.933 1179.9 246.6C1182.43 249.267 1184.53 251.633 1186.2 253.7L1175.5 262.9ZM152.6 361.8C155.667 361.2 159.1 360.467 162.9 359.6C166.767 358.667 170.833 357.7 175.1 356.7C179.367 355.633 183.6 354.567 187.8 353.5L189.3 364.4C183.567 366 177.733 367.6 171.8 369.2C165.933 370.733 160.567 372.1 155.7 373.3L152.6 361.8ZM153.9 330.1H188.5V341.2H153.9V330.1ZM166.3 311H178V391.5C178 394.367 177.7 396.6 177.1 398.2C176.5 399.867 175.333 401.133 173.6 402C171.933 402.867 169.833 403.433 167.3 403.7C164.833 404.033 161.833 404.2 158.3 404.2C158.1 402.667 157.667 400.833 157 398.7C156.4 396.633 155.733 394.833 155 393.3C156.933 393.367 158.8 393.4 160.6 393.4C162.467 393.4 163.733 393.4 164.4 393.4C165.133 393.4 165.633 393.267 165.9 393C166.167 392.667 166.3 392.167 166.3 391.5V311ZM184.7 390.4H246.5V401.6H184.7V390.4ZM203.1 354.4V369.5H228.3V354.4H203.1ZM203.1 328.6V343.3H228.3V328.6H203.1ZM191.6 317.4H240.4V380.6H191.6V317.4ZM293.4 311H306.6V352H293.4V311ZM260.6 319.2L271.5 315C273.3 317.267 275 319.767 276.6 322.5C278.2 325.167 279.633 327.833 280.9 330.5C282.167 333.1 283.167 335.467 283.9 337.6L272.3 342.5C271.7 340.367 270.767 337.933 269.5 335.2C268.3 332.467 266.933 329.7 265.4 326.9C263.867 324.1 262.267 321.533 260.6 319.2ZM327 314L340.4 318C338.933 320.933 337.4 323.933 335.8 327C334.2 330 332.6 332.867 331 335.6C329.467 338.333 327.967 340.767 326.5 342.9L315.9 339.1C317.233 336.833 318.6 334.267 320 331.4C321.4 328.533 322.7 325.6 323.9 322.6C325.167 319.533 326.2 316.667 327 314ZM262.9 345.7H338.7V404.9H325.9V357.8H262.9V345.7ZM266.4 367H330.5V378.5H266.4V367ZM260.7 388.9H332.5V400.8H260.7V388.9ZM355 341.4H445V351.9H355V341.4ZM363.6 321.8H420.8V332.2H363.6V321.8ZM381.3 376.2H425.9V385.3H381.3V376.2ZM381.3 392H425.9V402.1H381.3V392ZM387.2 311H399.1V347.3H387.2V311ZM431.2 313.9L441.5 319.3C435.033 328.367 427.433 336.633 418.7 344.1C409.967 351.567 400.533 358.167 390.4 363.9C380.333 369.633 369.9 374.5 359.1 378.5C358.633 377.633 357.967 376.6 357.1 375.4C356.233 374.133 355.3 372.867 354.3 371.6C353.367 370.333 352.533 369.333 351.8 368.6C362.667 365.133 373.033 360.733 382.9 355.4C392.833 350.067 401.9 343.9 410.1 336.9C418.367 329.9 425.4 322.233 431.2 313.9ZM374.5 359.9H433.5V404.6H421V369.8H386.5V405H374.5V359.9ZM485 328.3L496.1 323C498.233 325.4 500.333 328.033 502.4 330.9C504.467 333.767 506.3 336.6 507.9 339.4C509.567 342.133 510.9 344.667 511.9 347L500.1 353.3C499.3 351.033 498.1 348.433 496.5 345.5C494.9 342.5 493.1 339.5 491.1 336.5C489.1 333.5 487.067 330.767 485 328.3ZM452.6 380.8C456 379.667 459.933 378.233 464.4 376.5C468.933 374.767 473.667 372.9 478.6 370.9C483.6 368.9 488.533 366.9 493.4 364.9L496.2 376.6C491.733 378.6 487.2 380.6 482.6 382.6C478 384.6 473.467 386.533 469 388.4C464.6 390.267 460.5 392 456.7 393.6L452.6 380.8ZM511.2 371.9L520.4 363.4C522.667 365.8 525.1 368.367 527.7 371.1C530.367 373.833 532.967 376.633 535.5 379.5C538.1 382.3 540.5 385.033 542.7 387.7C544.9 390.3 546.7 392.7 548.1 394.9L537.8 404.9C536.533 402.633 534.833 400.1 532.7 397.3C530.633 394.567 528.367 391.733 525.9 388.8C523.5 385.867 521 382.967 518.4 380.1C515.867 377.167 513.467 374.433 511.2 371.9ZM524.8 316.8L538.1 318C536.9 329.333 535.167 339.567 532.9 348.7C530.633 357.767 527.6 365.867 523.8 373C520 380.067 515.2 386.267 509.4 391.6C503.667 396.933 496.7 401.433 488.5 405.1C487.9 404.233 487.033 403.133 485.9 401.8C484.767 400.467 483.567 399.1 482.3 397.7C481.033 396.367 479.9 395.3 478.9 394.5C486.9 391.433 493.6 387.6 499 383C504.467 378.4 508.933 372.933 512.4 366.6C515.867 360.2 518.567 352.9 520.5 344.7C522.433 336.433 523.867 327.133 524.8 316.8ZM463.9 317.2L476.5 316.7L478.8 381.7L466.2 382.2L463.9 317.2ZM573.9 325.6H598.4V337H573.9V325.6ZM615.7 311.3H628.2V404.8H615.7V311.3ZM562.8 355.3L568.9 346.3C571.367 347.633 573.967 349.2 576.7 351C579.5 352.8 582.133 354.6 584.6 356.4C587.067 358.2 589.067 359.933 590.6 361.6L584.1 371.7C582.7 370.033 580.8 368.233 578.4 366.3C576 364.3 573.433 362.333 570.7 360.4C567.967 358.467 565.333 356.767 562.8 355.3ZM575.1 310.9L587.1 313.4C585.367 320.133 583.2 326.6 580.6 332.8C578.067 339 575.167 344.733 571.9 350C568.7 355.2 565.233 359.733 561.5 363.6C560.833 362.867 559.867 362.033 558.6 361.1C557.4 360.1 556.167 359.133 554.9 358.2C553.633 357.2 552.5 356.433 551.5 355.9C555.233 352.5 558.6 348.467 561.6 343.8C564.6 339.133 567.233 334 569.5 328.4C571.767 322.733 573.633 316.9 575.1 310.9ZM609.5 335.3C611.5 338.967 613.9 342.6 616.7 346.2C619.567 349.733 622.733 353.1 626.2 356.3C629.667 359.5 633.333 362.4 637.2 365C641.133 367.6 645.1 369.833 649.1 371.7C648.233 372.5 647.233 373.533 646.1 374.8C644.967 376 643.9 377.267 642.9 378.6C641.9 379.867 641.067 381.033 640.4 382.1C636.2 379.9 632.133 377.267 628.2 374.2C624.333 371.133 620.633 367.733 617.1 364C613.567 360.267 610.3 356.3 607.3 352.1C604.367 347.9 601.733 343.567 599.4 339.1L609.5 335.3ZM595 325.6H597.3L599.4 325.2L607.3 327.9C605.3 340.767 602.267 352.167 598.2 362.1C594.2 372.033 589.3 380.5 583.5 387.5C577.7 394.433 571.2 399.967 564 404.1C563.333 403.233 562.433 402.2 561.3 401C560.167 399.867 558.967 398.733 557.7 397.6C556.5 396.533 555.4 395.7 554.4 395.1C561.533 391.367 567.867 386.467 573.4 380.4C578.933 374.267 583.533 366.867 587.2 358.2C590.867 349.533 593.467 339.567 595 328.3V325.6ZM695.5 317.7C695.233 318.967 694.933 320.367 694.6 321.9C694.267 323.367 693.967 324.733 693.7 326C693.433 327.467 693.1 329.133 692.7 331C692.3 332.8 691.9 334.633 691.5 336.5C691.167 338.3 690.8 340.067 690.4 341.8C689.733 344.667 688.9 348 687.9 351.8C686.9 355.6 685.733 359.7 684.4 364.1C683.067 368.433 681.567 372.8 679.9 377.2C678.233 381.6 676.467 385.9 674.6 390.1C672.733 394.233 670.733 397.967 668.6 401.3L655.6 396.1C657.933 392.967 660.1 389.467 662.1 385.6C664.167 381.667 666.033 377.667 667.7 373.6C669.367 369.467 670.833 365.4 672.1 361.4C673.433 357.333 674.567 353.567 675.5 350.1C676.5 346.633 677.267 343.667 677.8 341.2C678.733 336.667 679.467 332.3 680 328.1C680.533 323.9 680.733 319.933 680.6 316.2L695.5 317.7ZM729.9 327.8C731.5 330 733.133 332.7 734.8 335.9C736.533 339.033 738.233 342.367 739.9 345.9C741.567 349.433 743.067 352.833 744.4 356.1C745.733 359.367 746.767 362.2 747.5 364.6L734.8 370.4C734.2 367.6 733.3 364.5 732.1 361.1C730.967 357.7 729.633 354.267 728.1 350.8C726.567 347.267 724.933 343.933 723.2 340.8C721.533 337.667 719.8 335.033 718 332.9L729.9 327.8ZM654.9 338.2C656.7 338.333 658.467 338.4 660.2 338.4C662 338.333 663.8 338.267 665.6 338.2C667.267 338.133 669.267 338.033 671.6 337.9C673.933 337.7 676.4 337.5 679 337.3C681.667 337.1 684.333 336.9 687 336.7C689.667 336.433 692.133 336.233 694.4 336.1C696.667 335.967 698.533 335.9 700 335.9C703.6 335.9 706.733 336.5 709.4 337.7C712.067 338.833 714.167 340.8 715.7 343.6C717.3 346.4 718.1 350.2 718.1 355C718.1 358.933 717.933 363.2 717.6 367.8C717.267 372.4 716.667 376.8 715.8 381C715 385.2 713.867 388.767 712.4 391.7C710.8 395.167 708.6 397.567 705.8 398.9C703.067 400.233 699.8 400.9 696 400.9C694.133 400.9 692.1 400.733 689.9 400.4C687.7 400.133 685.733 399.833 684 399.5L681.9 386.3C683.167 386.633 684.567 386.967 686.1 387.3C687.7 387.633 689.2 387.9 690.6 388.1C692.067 388.3 693.233 388.4 694.1 388.4C695.767 388.4 697.233 388.1 698.5 387.5C699.767 386.833 700.8 385.7 701.6 384.1C702.533 382.167 703.3 379.667 703.9 376.6C704.5 373.533 704.933 370.233 705.2 366.7C705.533 363.1 705.7 359.667 705.7 356.4C705.7 353.733 705.3 351.767 704.5 350.5C703.767 349.233 702.667 348.4 701.2 348C699.8 347.533 698.067 347.3 696 347.3C694.467 347.3 692.4 347.433 689.8 347.7C687.2 347.9 684.4 348.167 681.4 348.5C678.467 348.767 675.733 349.067 673.2 349.4C670.667 349.733 668.7 349.967 667.3 350.1C665.833 350.367 663.967 350.667 661.7 351C659.5 351.267 657.633 351.533 656.1 351.8L654.9 338.2ZM728.1 313.9C728.967 315.1 729.867 316.533 730.8 318.2C731.8 319.867 732.767 321.533 733.7 323.2C734.633 324.867 735.433 326.333 736.1 327.6L728 331.1C727.333 329.7 726.567 328.167 725.7 326.5C724.833 324.833 723.933 323.167 723 321.5C722.067 319.833 721.133 318.4 720.2 317.2L728.1 313.9ZM740 309.4C740.867 310.667 741.8 312.133 742.8 313.8C743.8 315.467 744.767 317.133 745.7 318.8C746.7 320.467 747.467 321.867 748 323L740.1 326.4C739.033 324.333 737.767 322 736.3 319.4C734.833 316.733 733.4 314.467 732 312.6L740 309.4ZM798.9 333.3H846.7V344.8H798.9V333.3ZM754.6 326.5H802.2V337.6H754.6V326.5ZM824.1 311H836V390C836 393.4 835.633 396.033 834.9 397.9C834.167 399.833 832.833 401.3 830.9 402.3C828.967 403.367 826.5 404.067 823.5 404.4C820.5 404.733 816.9 404.9 812.7 404.9C812.633 403.7 812.4 402.333 812 400.8C811.6 399.267 811.133 397.7 810.6 396.1C810.067 394.567 809.533 393.2 809 392C811.8 392.133 814.4 392.2 816.8 392.2C819.2 392.2 820.833 392.2 821.7 392.2C822.567 392.2 823.167 392.067 823.5 391.8C823.9 391.467 824.1 390.867 824.1 390V311ZM797.9 357.4L807.5 352.8C809.1 355 810.633 357.367 812.1 359.9C813.633 362.433 814.967 364.933 816.1 367.4C817.233 369.8 818.067 372.033 818.6 374.1L808.2 379.3C807.733 377.367 806.967 375.133 805.9 372.6C804.9 370.067 803.7 367.467 802.3 364.8C800.9 362.133 799.433 359.667 797.9 357.4ZM756.5 351.7L765 344.8C767.933 348 770.967 351.4 774.1 355C777.233 358.6 780.267 362.267 783.2 366C786.2 369.733 788.867 373.367 791.2 376.9C793.533 380.367 795.433 383.6 796.9 386.6L787.4 394.8C786.067 391.8 784.267 388.5 782 384.9C779.733 381.3 777.167 377.567 774.3 373.7C771.5 369.833 768.567 366.033 765.5 362.3C762.5 358.5 759.5 354.967 756.5 351.7ZM772.1 311.1H783.6V333.3H772.1V311.1ZM783 339.6L794.7 341.2C793.033 350.867 790.7 359.667 787.7 367.6C784.7 375.467 780.933 382.467 776.4 388.6C771.867 394.667 766.367 399.867 759.9 404.2C759.433 403.4 758.7 402.4 757.7 401.2C756.767 400 755.767 398.8 754.7 397.6C753.633 396.467 752.667 395.533 751.8 394.8C757.933 391.267 763.067 386.833 767.2 381.5C771.333 376.1 774.667 369.9 777.2 362.9C779.8 355.9 781.733 348.133 783 339.6ZM892.8 353.4H904.7V388.2C904.7 390.067 904.9 391.233 905.3 391.7C905.767 392.167 906.667 392.4 908 392.4C908.4 392.4 908.933 392.4 909.6 392.4C910.333 392.4 911.133 392.4 912 392.4C912.867 392.4 913.667 392.4 914.4 392.4C915.133 392.4 915.7 392.4 916.1 392.4C917.1 392.4 917.867 392.033 918.4 391.3C918.933 390.5 919.3 388.933 919.5 386.6C919.767 384.267 919.967 380.8 920.1 376.2C920.967 376.867 922 377.533 923.2 378.2C924.467 378.867 925.767 379.433 927.1 379.9C928.433 380.367 929.6 380.767 930.6 381.1C930.267 386.767 929.633 391.2 928.7 394.4C927.833 397.6 926.5 399.833 924.7 401.1C922.9 402.433 920.4 403.1 917.2 403.1C916.733 403.1 915.967 403.1 914.9 403.1C913.9 403.1 912.8 403.1 911.6 403.1C910.467 403.1 909.4 403.1 908.4 403.1C907.4 403.1 906.633 403.1 906.1 403.1C902.567 403.1 899.833 402.633 897.9 401.7C896.033 400.833 894.7 399.3 893.9 397.1C893.167 394.9 892.8 391.967 892.8 388.3V353.4ZM878.6 361.1L889.4 363.4C889.067 367.2 888.6 371.133 888 375.2C887.4 379.267 886.6 383.133 885.6 386.8C884.667 390.4 883.433 393.567 881.9 396.3L871.3 391.5C872.7 388.9 873.867 385.967 874.8 382.7C875.8 379.433 876.6 375.933 877.2 372.2C877.8 368.467 878.267 364.767 878.6 361.1ZM893.5 342.2L901.6 334.3C904.267 335.567 907.133 337.033 910.2 338.7C913.267 340.367 916.2 342.1 919 343.9C921.8 345.7 924.1 347.367 925.9 348.9L917.3 357.9C915.7 356.3 913.533 354.567 910.8 352.7C908.133 350.767 905.267 348.9 902.2 347.1C899.2 345.233 896.3 343.6 893.5 342.2ZM924.1 362.5L934.8 358.4C936.8 361.8 938.733 365.5 940.6 369.5C942.467 373.433 944.067 377.3 945.4 381.1C946.8 384.833 947.733 388.233 948.2 391.3L936.4 396.2C936.067 393.2 935.267 389.767 934 385.9C932.8 381.967 931.333 378 929.6 374C927.867 369.933 926.033 366.1 924.1 362.5ZM896.9 311H909.4V329.3H896.9V311ZM866.7 322.8H945.7V334.2H866.7V322.8ZM861.1 322.8H873.1V348C873.1 352.067 872.933 356.567 872.6 361.5C872.333 366.367 871.833 371.4 871.1 376.6C870.367 381.733 869.3 386.733 867.9 391.6C866.567 396.467 864.767 400.867 862.5 404.8C861.767 404.133 860.733 403.333 859.4 402.4C858.133 401.533 856.833 400.667 855.5 399.8C854.167 399 853.033 398.4 852.1 398C854.167 394.4 855.8 390.467 857 386.2C858.2 381.933 859.067 377.567 859.6 373.1C860.2 368.633 860.6 364.267 860.8 360C861 355.667 861.1 351.667 861.1 348V322.8ZM956.9 327.4C958.9 327.333 960.8 327.267 962.6 327.2C964.4 327.067 965.767 326.967 966.7 326.9C968.767 326.767 971.3 326.567 974.3 326.3C977.367 325.967 980.767 325.633 984.5 325.3C988.3 324.967 992.333 324.633 996.6 324.3C1000.87 323.967 1005.3 323.6 1009.9 323.2C1013.37 322.867 1016.8 322.6 1020.2 322.4C1023.67 322.133 1026.93 321.933 1030 321.8C1033.13 321.6 1035.87 321.467 1038.2 321.4L1038.3 334.2C1036.5 334.2 1034.43 334.233 1032.1 334.3C1029.77 334.367 1027.43 334.5 1025.1 334.7C1022.83 334.833 1020.8 335.133 1019 335.6C1016 336.4 1013.2 337.767 1010.6 339.7C1008 341.567 1005.73 343.8 1003.8 346.4C1001.93 348.933 1000.47 351.7 999.4 354.7C998.333 357.633 997.8 360.6 997.8 363.6C997.8 366.867 998.367 369.767 999.5 372.3C1000.7 374.767 1002.3 376.9 1004.3 378.7C1006.37 380.433 1008.77 381.9 1011.5 383.1C1014.23 384.233 1017.17 385.1 1020.3 385.7C1023.5 386.3 1026.8 386.7 1030.2 386.9L1025.5 400.6C1021.3 400.333 1017.2 399.667 1013.2 398.6C1009.27 397.533 1005.57 396.067 1002.1 394.2C998.633 392.333 995.6 390.067 993 387.4C990.467 384.667 988.433 381.567 986.9 378.1C985.433 374.567 984.7 370.633 984.7 366.3C984.7 361.5 985.467 357.1 987 353.1C988.533 349.033 990.433 345.5 992.7 342.5C995.033 339.433 997.333 337.067 999.6 335.4C997.733 335.667 995.467 335.933 992.8 336.2C990.2 336.467 987.367 336.8 984.3 337.2C981.3 337.533 978.233 337.9 975.1 338.3C971.967 338.7 968.933 339.167 966 339.7C963.133 340.167 960.533 340.633 958.2 341.1L956.9 327.4ZM1024 344C1024.87 345.2 1025.77 346.633 1026.7 348.3C1027.7 349.9 1028.67 351.533 1029.6 353.2C1030.53 354.8 1031.33 356.267 1032 357.6L1024.4 361C1023.13 358.2 1021.9 355.733 1020.7 353.6C1019.57 351.467 1018.2 349.3 1016.6 347.1L1024 344ZM1035.2 339.4C1036.07 340.6 1037 342 1038 343.6C1039.07 345.133 1040.1 346.733 1041.1 348.4C1042.1 350 1042.93 351.433 1043.6 352.7L1036.1 356.3C1034.77 353.633 1033.47 351.267 1032.2 349.2C1031 347.133 1029.57 345 1027.9 342.8L1035.2 339.4ZM1066.4 324.2C1073.73 325.067 1080.47 325.6 1086.6 325.8C1092.8 325.933 1098.53 325.8 1103.8 325.4C1108.4 325 1112.8 324.4 1117 323.6C1121.2 322.8 1125.33 321.767 1129.4 320.5L1131 332C1127.4 333 1123.5 333.867 1119.3 334.6C1115.1 335.333 1110.8 335.9 1106.4 336.3C1101.27 336.7 1095.33 336.9 1088.6 336.9C1081.93 336.833 1074.77 336.433 1067.1 335.7L1066.4 324.2ZM1064.6 345.2C1070.67 345.733 1076.47 346.1 1082 346.3C1087.53 346.5 1092.73 346.5 1097.6 346.3C1102.47 346.1 1106.9 345.833 1110.9 345.5C1116.3 345.033 1120.93 344.367 1124.8 343.5C1128.67 342.567 1132.03 341.7 1134.9 340.9L1136.9 352.7C1133.9 353.433 1130.6 354.133 1127 354.8C1123.4 355.467 1119.57 356.033 1115.5 356.5C1111.23 356.9 1106.33 357.233 1100.8 357.5C1095.33 357.7 1089.57 357.767 1083.5 357.7C1077.43 357.567 1071.37 357.333 1065.3 357L1064.6 345.2ZM1098 327C1097.53 325.133 1097 323.3 1096.4 321.5C1095.8 319.633 1095.13 317.733 1094.4 315.8L1107.9 314.3C1108.3 317.433 1108.8 320.533 1109.4 323.6C1110.07 326.6 1110.8 329.5 1111.6 332.3C1112.47 335.1 1113.3 337.8 1114.1 340.4C1114.9 342.667 1115.93 345.267 1117.2 348.2C1118.53 351.067 1119.97 353.967 1121.5 356.9C1123.03 359.767 1124.57 362.367 1126.1 364.7C1126.77 365.633 1127.43 366.533 1128.1 367.4C1128.83 368.2 1129.67 369 1130.6 369.8L1124.5 379C1122.63 378.6 1120.3 378.2 1117.5 377.8C1114.77 377.4 1111.9 377.033 1108.9 376.7C1105.97 376.367 1103.27 376.067 1100.8 375.8L1101.8 366.3C1103.87 366.5 1106.1 366.7 1108.5 366.9C1110.97 367.1 1112.93 367.3 1114.4 367.5C1111.73 363.033 1109.43 358.667 1107.5 354.4C1105.63 350.133 1104.07 346.167 1102.8 342.5C1102 340.167 1101.33 338.167 1100.8 336.5C1100.27 334.767 1099.77 333.167 1099.3 331.7C1098.9 330.167 1098.47 328.6 1098 327ZM1083.8 368.4C1082.6 370.067 1081.57 371.8 1080.7 373.6C1079.83 375.333 1079.4 377.3 1079.4 379.5C1079.4 383.167 1081.1 385.833 1084.5 387.5C1087.97 389.1 1093 389.9 1099.6 389.9C1104.33 389.9 1108.8 389.7 1113 389.3C1117.27 388.9 1121.17 388.367 1124.7 387.7L1124 400.4C1120.53 401 1116.63 401.467 1112.3 401.8C1107.97 402.133 1103.77 402.3 1099.7 402.3C1093.03 402.3 1087.27 401.6 1082.4 400.2C1077.6 398.8 1073.87 396.633 1071.2 393.7C1068.53 390.7 1067.17 386.833 1067.1 382.1C1067.03 378.9 1067.43 376.033 1068.3 373.5C1069.23 370.9 1070.27 368.4 1071.4 366L1083.8 368.4ZM1158.3 330.5C1160.43 330.767 1162.7 330.967 1165.1 331.1C1167.57 331.167 1169.73 331.2 1171.6 331.2C1175.73 331.2 1179.9 330.967 1184.1 330.5C1188.37 330.033 1192.47 329.433 1196.4 328.7C1200.33 327.9 1203.9 327 1207.1 326L1207.5 337.6C1204.63 338.333 1201.2 339.1 1197.2 339.9C1193.27 340.633 1189.1 341.267 1184.7 341.8C1180.3 342.267 1175.97 342.5 1171.7 342.5C1169.7 342.5 1167.67 342.467 1165.6 342.4C1163.53 342.333 1161.4 342.233 1159.2 342.1L1158.3 330.5ZM1197.2 315.5C1196.8 317.167 1196.27 319.333 1195.6 322C1194.93 324.667 1194.17 327.467 1193.3 330.4C1192.5 333.333 1191.63 336.233 1190.7 339.1C1189.23 343.9 1187.3 349 1184.9 354.4C1182.5 359.8 1179.9 365.067 1177.1 370.2C1174.3 375.333 1171.47 379.9 1168.6 383.9L1156.5 377.7C1158.77 374.9 1161 371.8 1163.2 368.4C1165.4 365 1167.47 361.5 1169.4 357.9C1171.33 354.3 1173.07 350.833 1174.6 347.5C1176.2 344.1 1177.47 341.033 1178.4 338.3C1179.67 334.767 1180.77 330.833 1181.7 326.5C1182.7 322.1 1183.27 317.967 1183.4 314.1L1197.2 315.5ZM1220.6 346.6C1220.47 348.733 1220.4 350.867 1220.4 353C1220.47 355.067 1220.53 357.2 1220.6 359.4C1220.67 360.933 1220.73 362.9 1220.8 365.3C1220.93 367.633 1221.07 370.133 1221.2 372.8C1221.33 375.4 1221.43 377.9 1221.5 380.3C1221.63 382.633 1221.7 384.5 1221.7 385.9C1221.7 388.967 1221.07 391.767 1219.8 394.3C1218.53 396.767 1216.5 398.733 1213.7 400.2C1210.97 401.667 1207.2 402.4 1202.4 402.4C1198.27 402.4 1194.53 401.767 1191.2 400.5C1187.87 399.3 1185.2 397.5 1183.2 395.1C1181.2 392.633 1180.2 389.567 1180.2 385.9C1180.2 382.633 1181.07 379.7 1182.8 377.1C1184.53 374.433 1187.03 372.367 1190.3 370.9C1193.63 369.367 1197.63 368.6 1202.3 368.6C1208.17 368.6 1213.57 369.433 1218.5 371.1C1223.43 372.7 1227.87 374.767 1231.8 377.3C1235.73 379.833 1239.1 382.367 1241.9 384.9L1235.2 395.6C1233.4 394 1231.33 392.2 1229 390.2C1226.73 388.2 1224.17 386.333 1221.3 384.6C1218.5 382.867 1215.43 381.433 1212.1 380.3C1208.83 379.167 1205.3 378.6 1201.5 378.6C1198.63 378.6 1196.33 379.167 1194.6 380.3C1192.87 381.433 1192 382.9 1192 384.7C1192 386.567 1192.73 388.067 1194.2 389.2C1195.73 390.333 1197.87 390.9 1200.6 390.9C1202.87 390.9 1204.67 390.533 1206 389.8C1207.33 389 1208.27 387.9 1208.8 386.5C1209.33 385.033 1209.6 383.4 1209.6 381.6C1209.6 380.067 1209.53 377.9 1209.4 375.1C1209.27 372.3 1209.1 369.2 1208.9 365.8C1208.77 362.4 1208.63 359 1208.5 355.6C1208.37 352.2 1208.23 349.2 1208.1 346.6H1220.6ZM1237.8 351.9C1235.87 350.3 1233.47 348.6 1230.6 346.8C1227.73 345 1224.77 343.3 1221.7 341.7C1218.7 340.033 1216.07 338.7 1213.8 337.7L1220.2 327.8C1222 328.6 1224.03 329.6 1226.3 330.8C1228.63 331.933 1230.97 333.133 1233.3 334.4C1235.7 335.667 1237.9 336.933 1239.9 338.2C1241.97 339.4 1243.63 340.467 1244.9 341.4L1237.8 351.9ZM1276 324.5C1275.73 325.7 1275.5 327.067 1275.3 328.6C1275.17 330.133 1275.03 331.633 1274.9 333.1C1274.83 334.567 1274.8 335.767 1274.8 336.7C1274.73 338.9 1274.7 341.167 1274.7 343.5C1274.77 345.833 1274.83 348.233 1274.9 350.7C1275.03 353.1 1275.2 355.5 1275.4 357.9C1275.87 362.7 1276.53 366.933 1277.4 370.6C1278.27 374.267 1279.4 377.133 1280.8 379.2C1282.2 381.2 1283.97 382.2 1286.1 382.2C1287.23 382.2 1288.33 381.567 1289.4 380.3C1290.53 379.033 1291.53 377.4 1292.4 375.4C1293.33 373.333 1294.13 371.167 1294.8 368.9C1295.53 366.633 1296.17 364.5 1296.7 362.5L1306.7 374.7C1304.5 380.5 1302.3 385.133 1300.1 388.6C1297.97 392 1295.73 394.467 1293.4 396C1291.07 397.467 1288.53 398.2 1285.8 398.2C1282.2 398.2 1278.77 397 1275.5 394.6C1272.3 392.2 1269.57 388.333 1267.3 383C1265.03 377.6 1263.43 370.433 1262.5 361.5C1262.17 358.433 1261.9 355.2 1261.7 351.8C1261.57 348.4 1261.47 345.167 1261.4 342.1C1261.4 339.033 1261.4 336.5 1261.4 334.5C1261.4 333.1 1261.33 331.433 1261.2 329.5C1261.07 327.567 1260.87 325.833 1260.6 324.3L1276 324.5ZM1326 326.8C1327.87 329.067 1329.67 331.833 1331.4 335.1C1333.13 338.367 1334.73 341.867 1336.2 345.6C1337.67 349.333 1338.97 353.167 1340.1 357.1C1341.23 360.967 1342.13 364.767 1342.8 368.5C1343.53 372.167 1344 375.533 1344.2 378.6L1331 383.7C1330.67 379.633 1330.07 375.2 1329.2 370.4C1328.33 365.6 1327.17 360.767 1325.7 355.9C1324.23 351.033 1322.47 346.433 1320.4 342.1C1318.4 337.767 1316.03 334.033 1313.3 330.9L1326 326.8Z" fill="black"/>
<g clip-path="url(#clip1_4985_81)">
<path d="M691.615 794.369C660.353 794.369 622.05 781.571 609.744 758.723C598.999 738.768 601.528 715.248 605.434 692.716C615.267 638.691 609.855 577.77 653.119 536.357C669.195 520.967 705.424 500 746.128 500C771.168 500 797.83 505.12 819.56 518.056C831.707 525.287 842.368 535.115 849.94 547.153C867.64 566.016 874.028 587.855 877.6 612.344C881.57 639.562 885.252 666.846 890.831 693.795C895.89 718.223 898.502 742.333 882.402 763.677C863.164 789.179 828.633 795.679 797.667 795.679" fill="#FEBE69"/>
<path d="M839.648 846.291C838.621 845.876 809.998 832.254 809.344 832.014C799.243 828.363 799.636 821.893 798.367 814.632C797.555 809.996 796.95 805.384 796.587 800.721C820.844 787.856 840.011 754.847 843.48 745.434C844.665 742.965 846.603 737.882 848.173 732.693L849.482 732.915C854.432 733.752 859.607 731.856 863.125 728.977C871.661 721.993 875.201 712.254 877.364 705.887C880.416 696.898 880.608 682.368 876.06 674.482C874.537 671.841 870.996 667.343 862.678 667.049C858.857 666.913 854.39 668.111 851.074 671.298L841.307 656.024C831.251 631.926 816.437 610.165 799.164 592.553C775.396 612.384 762.49 620.726 719.545 641.122C696.142 652.239 670.637 659.744 649.498 666.212L645.698 671.295C642.382 668.111 637.916 666.913 634.094 667.047C625.776 667.34 622.236 671.838 620.712 674.48C616.164 682.365 616.357 696.894 619.409 705.885C621.569 712.251 625.112 721.991 633.647 728.975C637.43 732.07 643.135 734.031 648.412 732.675C652.278 745.806 659.28 761.656 671.575 776.372C681.387 788.115 691.707 796.763 703.265 802.012C703.265 802.012 703.778 802.246 704.289 802.498C703.939 806.564 703.371 810.435 702.65 814.632C701.339 821.89 701.776 828.363 691.673 832.014C691.016 832.254 659.095 847.187 657.125 847.844C657.125 847.844 667.707 912.243 749.457 912.243C831.207 912.243 839.648 846.291 839.648 846.291Z" fill="#FCE0CD"/>
<path d="M746.15 710.738C747.029 714.088 747.871 717.49 748.374 720.919L748.162 719.344C748.221 719.813 748.248 720.277 748.199 720.748L748.411 719.173C748.379 719.393 748.33 719.596 748.256 719.805L748.853 718.391C748.789 718.539 748.72 718.662 748.631 718.798L749.557 717.598C749.453 717.727 749.352 717.823 749.224 717.927L750.424 717.001C750.167 717.166 749.895 717.3 749.616 717.428L751.031 716.831C750.586 717.016 750.147 717.152 749.67 717.228L751.246 717.016C750.816 717.068 750.399 717.063 749.969 717.016L751.544 717.228C751.063 717.161 750.591 717.043 750.11 716.979C749.322 716.732 748.535 716.697 747.747 716.873C746.96 716.907 746.224 717.142 745.545 717.576C744.315 718.295 743.143 719.704 742.822 721.116C742.476 722.632 742.55 724.336 743.419 725.681C744.189 726.876 745.481 728.204 746.96 728.404C748.117 728.56 749.241 728.853 750.419 728.905C752.258 728.987 753.957 728.416 755.596 727.663C757.635 726.725 759.235 724.852 759.776 722.657C760.238 720.793 760.043 719.21 759.727 717.342C759.174 714.061 758.413 710.812 757.571 707.593C757.196 706.163 756.119 704.796 754.848 704.052C753.576 703.309 751.705 702.993 750.283 703.455C747.197 704.452 745.3 707.531 746.145 710.743L746.15 710.738Z" fill="#EFC0A0"/>
<path d="M692.989 681.715C691.288 687.24 692.396 699.952 702.865 701.033C716.701 700.949 717.436 685.584 712.78 678.358C708.965 672.443 697.754 669.982 692.989 681.715Z" fill="#645D5C"/>
<path d="M803.792 681.715C805.493 687.24 804.384 699.952 793.916 701.033C780.08 700.949 779.342 685.581 784.001 678.358C787.815 672.443 799.027 669.982 803.792 681.715Z" fill="#645D5C"/>
<path d="M853.875 730.434C845.648 730.434 839.965 736.218 839.965 742.99C839.965 750.564 845.772 755.78 853.877 755.78C862.294 755.78 867.79 750.514 867.79 742.99C867.79 736.173 862.074 730.434 853.877 730.434H853.875Z" fill="white"/>
<path d="M883.085 1259C861.711 1260.2 835.365 1259.43 818.351 1256.76C800.688 1253.97 785.067 1247.57 777.356 1241.74C765.658 1232.85 758.869 1222.61 754.948 1209.74C753.464 1204.93 750.499 1190.68 748.391 1176.8C746.282 1190.68 743.317 1204.93 741.833 1209.74C737.912 1222.61 731.123 1232.85 719.425 1241.74C711.714 1247.57 696.093 1253.97 678.43 1256.76C661.414 1259.43 635.067 1260.2 613.696 1259C609.654 1284.22 609.077 1310.11 609.778 1336H887.001C887.702 1310.11 887.124 1284.22 883.085 1259V1259Z" fill="#B3B3B3"/>
<path d="M728.69 989.225C715.758 952.817 699.895 904.501 688.816 868.398L692.095 869.699C709.215 877.671 728.231 881.273 747.291 880.762C766.352 881.275 785.368 877.671 802.488 869.699C802.488 869.699 804.937 868.739 808.277 867.431C790.987 923.974 761.668 1011.39 750.449 1035.27H746.457C742.413 1026.68 736.023 1009.86 728.69 989.223V989.225Z" fill="#3D8DCC"/>
<path d="M734.958 762.058C735.711 761.66 736.471 761.28 737.242 760.917C738.538 760.307 736.027 761.342 737.516 760.816C738.074 760.618 738.629 760.418 739.197 760.243C740.733 759.774 742.296 759.466 743.876 759.191C743.002 759.345 743.525 759.233 744.101 759.172C744.56 759.122 745.022 759.08 745.483 759.046C746.597 758.964 747.715 758.922 748.834 758.915C749.875 758.908 750.917 758.932 751.957 758.994C752.436 759.021 752.915 759.056 753.394 759.1C753.549 759.115 755.329 759.369 753.944 759.142C755.507 759.399 757.053 759.707 758.566 760.181C759.188 760.376 759.84 760.734 760.475 760.865C760.287 760.826 759.27 760.29 759.961 760.66C760.225 760.801 760.502 760.92 760.769 761.058C761.159 761.263 761.541 761.48 761.914 761.715C762.406 762.023 763.768 763.077 761.929 761.64C764.368 763.541 767.963 764.196 770.309 761.64C772.259 759.515 772.921 755.296 770.309 753.262C764.354 748.623 756.934 747.11 749.483 747.063C742.254 747.016 735.373 748.448 728.983 751.822C726.238 753.271 725.176 757.32 726.857 759.93C728.657 762.722 732.027 763.606 734.965 762.055L734.958 762.058Z" fill="#EFC0A0"/>
<path d="M750.868 1034.37C750.727 1034.68 750.587 1034.98 750.451 1035.27H746.459C732.956 1006.58 693.284 886.21 679.774 837.818L673.738 839.575C671.851 840.124 653.653 844.92 650.497 845.913C625.847 853.66 604.034 861.764 585.798 877.712C573.663 888.323 566.012 903.037 561.017 918.153C554.874 936.754 552.343 956.568 550.109 975.955C547.65 997.28 545.857 1018.92 546.586 1040.4C547.319 1069.85 547.956 1098.95 557.936 1125.48C563.901 1141.34 574.663 1155.75 589.812 1163.92C595.731 1167.12 602.357 1168.75 609.105 1169C605.599 1199.26 600.636 1234.93 597.624 1253.08C597.402 1255.57 599.204 1257.8 601.649 1258.04C605.402 1258.44 609.451 1258.76 613.697 1258.98C616.981 1259.18 620.413 1259.33 623.894 1259.4C624.882 1259.45 625.894 1259.47 626.882 1259.47C627.919 1259.5 628.955 1259.52 629.992 1259.52C647.349 1259.72 665.57 1258.78 678.434 1256.76C696.087 1253.97 711.715 1247.57 719.418 1241.75C731.121 1232.84 737.911 1222.62 741.837 1209.73C743.318 1204.92 746.281 1190.67 748.404 1176.8C750.503 1190.67 753.466 1204.92 754.947 1209.73C758.873 1222.62 765.662 1232.84 777.365 1241.75C785.068 1247.57 800.697 1253.97 818.35 1256.76C831.213 1258.78 849.434 1259.72 866.791 1259.52C868.248 1259.5 869.68 1259.47 871.112 1259.45C872.371 1259.42 873.606 1259.4 874.815 1259.38C875.284 1259.35 875.729 1259.33 876.198 1259.33C877.334 1259.28 878.469 1259.23 879.58 1259.18C885.111 1258.93 890.37 1258.54 895.135 1258.04C897.579 1257.8 899.382 1255.57 899.159 1253.08C895.802 1232.86 889.999 1190.82 886.545 1158.83C907.287 1152.06 924.948 1139.65 935.075 1115.87C944.848 1092.93 946.028 1066.83 946.028 1042.22C946.055 1015.26 945.566 988.02 942.996 961.16C940.69 937.065 938.875 915.254 924.639 894.502C904.08 864.532 870.988 855.168 838.581 843.506C831.697 837.828 824.601 832.799 819.276 829.404C808.825 869.968 765.628 1002.19 750.871 1034.37L750.868 1034.37Z" fill="white"/>
<path d="M537.046 761.07C533.668 763.181 530.503 764.008 527.644 763.522C525.955 763.238 524.412 762.645 523.056 761.764C518.227 758.624 513.213 751.052 508.939 740.447C503.445 726.804 506.487 717.445 510.01 706.608C510.835 704.072 511.687 701.451 512.44 698.718C514.05 693.096 513.188 687.502 510.013 682.975C507.035 678.731 502.255 675.988 497.224 675.643C492.777 675.117 488.049 676.225 483.983 678.765C479.911 681.308 476.813 685.122 475.484 689.23C472.887 696.014 473.161 703.036 473.773 709.002C473.929 710.518 473.894 713.481 471.914 716.305C470.84 717.838 469.277 719.29 467.512 720.391C465.569 721.605 463.448 722.373 461.384 722.615C455.844 723.259 451.577 720.675 448.338 714.718C444.928 708.442 443.452 700.787 444.183 693.163C445.617 678.212 455.846 662.741 470.243 653.745C478.422 648.635 491.599 643.359 507.927 647.252C519.437 649.995 530.009 657.816 536.209 668.172C541.867 677.622 543.507 688.421 540.828 698.577C539.137 704.988 537.554 709.667 536.157 713.792C535.332 716.231 534.619 718.334 534.004 720.443C532.51 725.56 533.172 731.557 535.735 736.094L536.818 738.003C538.579 741.088 540.1 743.755 541.421 746.88C542.154 748.613 542.628 751.576 542.035 754.279C541.44 756.987 539.623 759.463 537.048 761.073L537.046 761.07Z" fill="#3D8DCC"/>
<path d="M560.724 800.923C556.598 803.501 551.626 803.96 547.424 802.148C540.834 798.939 538.353 791.945 539.343 786.706C539.985 783.311 542.172 780.3 545.668 777.994L545.925 777.828C547.56 776.806 553.352 773.671 559.196 776.216C565.403 778.922 568.911 786.731 566.862 793.268C565.901 796.332 563.719 799.052 560.724 800.923Z" fill="#3D8DCC"/>
<path d="M836.994 849.236C853.931 855.311 871.266 860.73 887.116 869.395C903.367 878.28 917.053 890.809 925.437 907.505C934.121 924.799 935.54 944.61 937.283 963.562C939.446 987.097 940.009 1010.75 940.086 1034.37C940.202 1070.47 940.636 1116.65 908.866 1140.95C884.694 1159.44 851.292 1160.3 822.212 1161.79C775.257 1164.2 728.046 1164.97 681.066 1162.71C675.21 1162.43 669.358 1162.05 663.519 1161.52C660.327 1161.23 657.594 1164.45 657.594 1167.44C657.594 1170.89 660.319 1173.08 663.519 1173.37C687.965 1175.57 712.664 1175.7 737.193 1175.77C761.888 1175.84 786.585 1175.32 811.252 1174.18C828.834 1173.37 846.485 1172.64 863.911 1170.04C879.648 1167.69 895.501 1163.45 909.162 1155.04C924.146 1145.82 934.829 1132.12 941.429 1115.92C949.907 1095.12 951.613 1072.11 951.9 1049.87C952.211 1025.73 951.838 1001.52 950.228 977.432C949.478 966.189 948.485 954.929 947.105 943.746C945.868 933.706 944.211 923.678 940.928 914.079C934.254 894.579 921.526 878.261 904.755 866.396C889.296 855.462 871.251 848.823 853.531 842.548C849.07 840.968 844.601 839.408 840.144 837.808C837.132 836.727 833.658 839.028 832.856 841.946C831.952 845.231 833.972 848.149 836.994 849.233V849.236Z" fill="#E2E2E2"/>
<path d="M603.178 1169C600.811 1189.39 598.149 1209.75 595.201 1230.06C594.604 1234.18 593.994 1238.29 593.362 1242.39C592.799 1246.05 591.537 1250.21 591.698 1253.9C591.972 1260.2 596.949 1263.47 602.68 1264.08C608.008 1264.64 613.37 1264.94 618.723 1265.17C640.144 1266.06 662.298 1265.83 683.435 1261.89C702.065 1258.41 720.763 1251.3 733.547 1236.77C747.847 1220.53 750.926 1199.03 754.119 1178.38C754.608 1175.22 753.316 1172.01 749.981 1171.09C747.173 1170.32 743.184 1172.05 742.692 1175.23C741.238 1184.63 739.574 1194.03 737.391 1203.3C735.727 1210.36 733.182 1217.04 729.18 1223.13C719.894 1237.26 704.979 1244.33 689.096 1248.49C669.991 1253.48 649.627 1253.8 629.994 1253.6C625.113 1253.55 620.229 1253.42 615.353 1253.15C612.731 1253.01 610.109 1252.86 607.489 1252.65C606.41 1252.57 605.331 1252.48 604.255 1252.38C604.052 1252.36 602.818 1252.11 602.68 1252.23C602.405 1252.47 603.025 1252.19 603.277 1252.81C603.712 1253.87 603.393 1254.34 603.652 1252.74C603.763 1252.07 603.872 1251.39 603.981 1250.71C604.255 1248.99 604.524 1247.27 604.791 1245.54C605.4 1241.59 605.988 1237.63 606.563 1233.67C609.691 1212.15 612.523 1190.59 615.032 1169C615.402 1165.81 612.044 1163.07 609.106 1163.07C605.595 1163.07 603.551 1165.81 603.181 1169L603.178 1169Z" fill="#E2E2E2"/>
<path d="M880.614 1158.83C882.73 1178.36 885.226 1197.84 887.9 1217.3C889.068 1225.79 890.275 1234.28 891.561 1242.75C892.072 1246.12 892.541 1249.5 893.144 1252.86C893.406 1254.3 893.048 1253.92 893.499 1252.81C893.852 1251.94 894.892 1252.13 893.057 1252.32C890.317 1252.61 887.564 1252.8 884.816 1252.97C864.217 1254.27 843.044 1254.19 822.564 1251.44C804.91 1249.06 786.168 1243.58 773.5 1230.44C759.39 1215.8 757.049 1194.42 754.114 1175.22C753.63 1172.06 749.652 1170.31 746.825 1171.08C743.443 1172.01 742.201 1175.2 742.687 1178.37C745.648 1197.74 748.453 1218.1 760.908 1233.96C773.498 1249.99 792.677 1257.83 812.216 1261.67C834.155 1265.97 857.317 1266.13 879.577 1265.11C885.214 1264.85 891.606 1265.06 897.102 1263.68C903.044 1262.19 905.659 1256.62 904.773 1250.92C903.541 1242.99 902.294 1235.07 901.153 1227.13C897.889 1204.41 894.939 1181.64 892.467 1158.82C892.122 1155.64 889.991 1152.9 886.542 1152.9C883.606 1152.9 880.268 1155.62 880.616 1158.82L880.614 1158.83Z" fill="#E2E2E2"/>
<path d="M672.163 833.863C638.99 843.366 602.013 851.747 577.264 877.688C561.746 893.957 554.162 916.173 549.769 937.789C547.323 949.832 545.799 962.047 544.38 974.248C542.906 986.927 541.641 999.636 540.982 1012.39C540.34 1024.83 540.548 1037.24 540.896 1049.69C541.237 1061.91 541.723 1074.14 543.11 1086.29C545.607 1108.17 550.55 1131.2 564.144 1149.09C576.693 1165.61 595.302 1176.96 616.609 1174.67C626.848 1173.57 636.956 1170.16 645.343 1164.08C654.041 1157.77 661.083 1149.69 666.853 1140.66C679.286 1121.2 687.629 1098.77 694.448 1076.82C701.877 1052.9 707.307 1028.44 712.941 1004.06C714.328 998.049 715.733 992.042 717.178 986.048C718.963 978.637 707.539 975.475 705.749 982.898C694.777 1028.42 686.498 1075.42 665.843 1117.85C657.777 1134.41 647.323 1152.14 629.431 1159.46C621.273 1162.79 611.903 1164.15 603.205 1162.42C594.235 1160.63 586.456 1155.68 579.989 1149.33C565.59 1135.18 559.559 1115.29 556.305 1095.86C554.453 1084.8 553.678 1073.58 553.186 1062.39C552.67 1050.62 552.233 1038.8 552.362 1027.01C552.623 1003.23 555.09 979.286 558.611 955.774C561.736 934.908 566.435 913.285 578.219 895.424C588.915 879.209 606.583 868.774 624.177 861.464C638.84 855.371 654.041 851.009 669.349 846.906C671.336 846.373 673.331 845.859 675.311 845.294C682.629 843.198 679.519 831.76 672.161 833.866L672.163 833.863Z" fill="#E2E2E2"/>
<path d="M598.215 1014.22C613.11 990.993 626.465 966.822 640.224 942.92C644.036 936.299 633.797 930.324 629.99 936.938C616.231 960.843 602.876 985.012 587.981 1008.24C583.853 1014.68 594.106 1020.63 598.215 1014.22Z" fill="#E2E2E2"/>
<path d="M672.688 851.485C674.813 842.252 677.547 833.7 680.971 826.59C688.968 809.986 700.873 804.629 718.596 802.209C727.138 801.044 736.027 801.817 743.999 805.098C752.986 808.798 760.106 816.755 755.154 827.242C762.835 828.931 766.061 833.866 765.758 840.084C765.595 843.454 763.284 849.609 757.521 850.786L756.541 850.986C761.499 853.408 762.311 857.783 762.39 860.723C762.531 865.937 757.872 871.496 753.559 871.013C750.44 870.662 747.895 870.383 745.537 870.171C747.102 871.045 747.989 871.538 747.989 871.538C750.951 873.192 752.769 876.713 752.978 879.308C753.201 882.038 752.574 884.924 751.008 887.126C748.544 890.595 744.357 890.792 740.755 891.199C736.046 891.733 731.785 892.969 730.207 897.379C729.595 899.089 727.244 910.251 726.338 913.539C724.519 920.155 721.608 926.631 716.761 931.605C711.915 936.58 704.92 939.895 697.807 939.349C697.807 939.349 694.889 939.125 692.716 938.962C681.522 934.316 666.362 927.181 662.718 921.567C658.647 915.297 666.411 902.889 667.058 892.416C667.898 878.841 669.693 864.488 672.688 851.487V851.485Z" fill="#FCE0CD"/>
<path d="M761.504 827.311C765.615 815.51 757.963 804.754 747.292 800.113C734.429 794.516 720.383 795.057 706.991 798.387C699.594 800.227 702.728 811.657 710.142 809.815C720.178 807.319 730.582 806.556 740.476 810.072C742.246 810.701 743.984 811.556 745.648 812.639C746.72 813.335 748.27 814.666 749.087 815.703C751.139 818.31 751.354 820.49 750.075 824.163C749.023 827.185 751.275 830.644 754.213 831.451C757.477 832.347 760.445 830.345 761.501 827.313L761.504 827.311Z" fill="#EFC0A0"/>
<path d="M724.428 829.328C730.44 829.735 736.459 830.18 742.432 830.987C741.419 830.851 743.316 831.118 743.316 831.118C743.928 831.207 744.54 831.3 745.153 831.399C746.599 831.629 748.041 831.878 749.483 832.147C750.767 832.387 752.053 832.626 753.33 832.908C753.942 833.043 754.552 833.187 755.152 833.372C755.527 833.485 755.9 833.611 756.268 833.749C755.811 833.545 755.767 833.527 756.137 833.703C756.613 833.935 757.06 834.211 757.522 834.465C757.739 834.596 757.949 834.737 758.154 834.888C757.611 834.458 757.589 834.458 758.087 834.888C758.403 835.236 758.749 835.552 759.055 835.912C758.166 834.873 759.028 835.971 759.169 836.221C759.49 836.784 759.611 837.386 759.332 836.463C759.487 836.983 759.633 837.499 759.771 838.025C760.151 839.474 759.882 837.43 759.831 838.591C759.808 839.074 759.791 839.615 759.828 840.092C759.91 841.163 760.184 838.781 759.865 839.943C759.759 840.336 759.695 840.743 759.584 841.136C759.537 841.299 758.949 842.884 759.285 842.101C759.621 841.319 758.833 842.918 758.742 843.069C758.574 843.348 757.687 844.402 758.542 843.449C758.206 843.822 757.87 844.165 757.505 844.511C758.401 843.671 757.32 844.577 757.05 844.753C756.446 845.056 756.433 845.069 757.013 844.792C756.663 844.911 756.305 845.007 755.942 845.081C752.826 845.817 750.977 849.367 751.804 852.369C752.68 855.556 755.969 857.244 759.092 856.506C772.244 853.403 775.918 834.559 765.917 826.035C760.623 821.522 753.409 820.729 746.77 819.739C739.355 818.633 731.902 817.987 724.426 817.481C721.228 817.263 718.5 820.359 718.5 823.406C718.5 826.793 721.221 829.113 724.426 829.33L724.428 829.328Z" fill="#EFC0A0"/>
<path d="M723.881 852.43C729.579 852.727 735.273 853.169 740.944 853.823C741.68 853.907 742.415 853.995 743.149 854.089C743.46 854.129 743.773 854.168 744.084 854.21C743.815 854.173 743.134 854.075 744.351 854.252C745.726 854.455 747.097 854.667 748.464 854.909C749.775 855.141 751.104 855.366 752.388 855.724C752.931 855.874 753.474 856.047 753.995 856.262C752.913 855.815 754.491 856.635 754.785 856.79C755.133 856.978 755.456 857.479 754.652 856.654C754.797 856.805 754.973 856.921 755.116 857.076C755.526 857.518 755.945 858.424 755.345 857.22C755.506 857.541 755.745 857.854 755.931 858.163C755.916 858.138 756.274 858.76 756.249 858.805C756.237 858.827 755.829 857.457 756.029 858.358C756.113 858.735 756.254 859.101 756.34 859.481C756.375 859.637 756.397 859.799 756.439 859.955C756.634 860.681 756.047 859.886 756.365 859.301C756.126 859.738 756.479 861.281 756.427 861.809C756.54 860.671 756.219 862.281 756.101 862.639C755.891 863.283 756.118 862.606 756.17 862.5C756.007 862.831 755.81 863.142 755.642 863.47C755.185 864.364 755.953 863.303 755.276 864.021C755.032 864.28 754.78 864.522 754.533 864.776C754.136 865.189 754.049 865.078 754.528 864.796C754.247 864.962 753.963 865.122 753.679 865.285C753.748 865.245 754.622 864.952 753.997 865.112C753.331 865.283 754.402 865.105 754.454 865.107C754.153 865.092 753.862 865.107 753.558 865.09C751.993 864.994 750.422 864.739 748.862 864.574C742.556 863.912 736.275 863.67 729.935 863.767C726.836 863.814 723.864 866.458 724.009 869.692C724.152 872.862 726.614 875.668 729.935 875.617C736.487 875.515 742.968 875.794 749.484 876.488C753.294 876.893 756.592 877.281 760.091 875.283C763.535 873.318 765.947 869.944 767.337 866.3C769.194 861.436 768.399 855.168 765.355 850.927C761.118 845.027 754.252 843.795 747.504 842.822C739.67 841.694 731.786 840.985 723.883 840.575C720.782 840.415 717.82 843.417 717.958 846.5C718.108 849.848 720.563 852.253 723.883 852.425L723.881 852.43Z" fill="#EFC0A0"/>
<path d="M699.468 1087.92C733.735 1085.11 767.987 1082.17 802.158 1078.32C813.917 1077 825.667 1075.59 837.41 1074.11C840.585 1073.71 843.335 1071.68 843.335 1068.19C843.335 1065.3 840.607 1061.86 837.41 1062.26C800.918 1066.85 764.348 1070.62 727.704 1073.73C718.294 1074.52 708.883 1075.29 699.468 1076.07C696.279 1076.33 693.543 1078.6 693.543 1081.99C693.543 1084.99 696.261 1088.18 699.468 1087.92Z" fill="#E2E2E2"/>
<path d="M854.2 987.011C854.166 996.639 852.889 1006.37 851.995 1015.94C851.442 1021.87 850.862 1027.78 850.22 1033.7C849.971 1035.99 849.714 1038.29 849.43 1040.58C849.366 1041.1 849.294 1041.62 849.233 1042.14C849.452 1040.35 849.326 1041.49 849.26 1041.91C849.156 1042.56 849.067 1043.22 848.946 1043.87C848.364 1047.02 849.813 1050.26 853.084 1051.16C855.968 1051.95 859.788 1050.19 860.373 1047.02C862.222 1037.04 862.837 1026.71 863.782 1016.62C864.701 1006.82 866.014 996.861 866.049 987.011C866.076 979.385 854.225 979.375 854.198 987.011H854.2Z" fill="#E2E2E2"/>
<path d="M793.658 1042.52C818.637 999.229 843.334 955.73 866.159 911.253C867.873 907.913 869.564 904.508 868.503 900.645C867.542 897.157 864.799 894.634 862.375 892.108C857.261 886.778 851.906 881.69 846.521 876.639L845.321 885.944C849.605 883.5 853.886 881.056 858.17 878.609C862.281 876.261 867.184 874.148 866.851 868.571C866.653 865.258 864.285 861.923 862.384 859.296C860.256 856.356 857.918 853.571 855.422 850.94C845.786 840.786 834.33 832.056 822.58 824.495C816.148 820.354 810.2 830.607 816.597 834.727C824.182 839.611 831.441 845.017 838.238 850.949C841.825 854.08 845.299 857.358 848.496 860.888C849.859 862.392 851.185 863.932 852.368 865.584C852.931 866.372 853.469 867.176 853.975 868.001C854.212 868.388 854.417 868.811 854.671 869.188C854.955 869.611 855.089 870.615 855.042 869.527L855.852 866.537C856.345 865.582 856.481 865.996 855.402 866.547C854.674 866.917 853.973 867.364 853.262 867.769C851.654 868.685 850.049 869.603 848.442 870.519C845.408 872.25 842.373 873.983 839.342 875.713C836.105 877.56 835.367 882.416 838.142 885.018C842.534 889.138 846.904 893.281 851.141 897.561C852.099 898.529 853.052 899.504 853.995 900.487C854.738 901.26 856.893 902.84 857.18 903.876C856.847 902.667 856.503 904.148 856.182 904.778C855.503 906.103 854.822 907.426 854.138 908.75C848.817 919.059 843.388 929.312 837.885 939.525C826.621 960.433 815.047 981.17 803.317 1001.82C796.73 1013.42 790.091 1024.99 783.424 1036.54C779.607 1043.16 789.844 1049.14 793.658 1042.53V1042.52Z" fill="#E2E2E2"/>
</g>
</g>
<rect x="1.5" y="1.5" width="1497" height="1297" rx="48.5" stroke="#D2D2D2" stroke-width="3"/>
<defs>
<clipPath id="clip0_4985_81">
<rect width="1500" height="1300" rx="50" fill="white"/>
</clipPath>
<clipPath id="clip1_4985_81">
<rect width="508" height="836" fill="white" transform="translate(444 500)"/>
</clipPath>
</defs>
</svg>
