<?xml version="1.0" encoding="UTF-8"?><svg id="b" xmlns="http://www.w3.org/2000/svg" width="393.956" height="396.911" viewBox="0 0 393.956 396.911"><defs><style>.m{fill:#bdbdbd;}.m,.n,.o,.p,.q,.r,.s,.t,.u{stroke-width:0px;}.n{fill:#7abee6;}.o{fill:#f5f5f5;}.p{fill:none;}.q{fill:#fce0cd;}.r{fill:#fff;}.s{fill:#e2e2e2;}.t{fill:#3d8dcc;}.u{fill:#645d5c;}</style></defs><g id="c"><g id="d"><g id="e"><path class="r" d="M102.485,355.099l-.918-.519s0-30.086-.005-59.364c33.716-19.476,114.52-66.139,172.945-99.879,17.601-10.164,33.171-19.156,44.811-25.878,14.82,8.567,36.175,20.907,53.133,30.7-59.916,34.597-201.072,116.11-218.622,126.244.005,28.742.005,57.699.005,57.699,0,0-44.371-25.063-51.348-29.003Z"/></g><g id="f"><path class="s" d="M103.495,353.372l-.918-.519.991,1.727c0-13.374,0-26.747-.003-40.121,0-6.414-.002-12.829-.003-19.243l-.991,1.727c10.375-5.993,20.75-11.985,31.125-17.977,13.834-7.99,27.669-15.98,41.503-23.969,15.423-8.907,30.846-17.814,46.27-26.721,15.141-8.744,30.282-17.487,45.423-26.231,16.199-9.355,32.398-18.709,48.597-28.064,1.613-.931,3.226-1.863,4.839-2.794h-2.019c13.757,7.952,27.515,15.902,41.274,23.85,3.953,2.283,7.906,4.567,11.859,6.85v-3.454c-14.352,8.287-28.703,16.574-43.054,24.861-17.407,10.051-34.813,20.103-52.22,30.155-17.495,10.103-34.99,20.205-52.485,30.308-14.55,8.402-29.1,16.804-43.649,25.206-8.571,4.949-17.142,9.899-25.714,14.848-.5.289-1,.577-1.5.866-.609.352-.991,1.025-.991,1.727.003,17.929.004,35.858.005,53.787,0,1.304,0,2.608,0,3.911l3.009-1.727c-5.142-2.905-10.285-5.809-15.427-8.714-8.903-5.028-17.805-10.057-26.708-15.085-3.071-1.735-6.142-3.469-9.214-5.204-2.244-1.268-4.263,2.186-2.019,3.454,6.803,3.842,13.606,7.685,20.409,11.527,8.443,4.769,16.885,9.537,25.328,14.306,1.871,1.057,3.741,2.113,5.612,3.17,1.315.743,3.009-.194,3.009-1.727,0-12.989,0-25.978-.002-38.967,0-6.244-.002-12.487-.003-18.731l-.991,1.727c7.675-4.432,15.35-8.864,23.025-13.296,13.996-8.082,27.992-16.164,41.987-24.246,17.303-9.992,34.606-19.983,51.909-29.975,17.577-10.15,35.153-20.299,52.73-30.449,14.817-8.556,29.634-17.112,44.451-25.668,1.507-.87,3.014-1.74,4.521-2.611,1.298-.749,1.297-2.705,0-3.454-14.129-8.16-28.257-16.323-42.384-24.487-3.583-2.071-7.166-4.142-10.749-6.213-.623-.36-1.396-.36-2.019,0-19.997,11.548-39.995,23.096-59.992,34.645-19.55,11.29-39.099,22.579-58.649,33.869-18.672,10.783-37.343,21.566-56.015,32.349-14.07,8.126-28.14,16.252-42.209,24.379-1.222.706-1.843,1.263-1.882,2.768-.045,1.751,0,3.509,0,5.261,0,3.382.001,6.765.001,10.147,0,6.271.001,12.541.002,18.812,0,7.832,0,15.663.001,23.495,0,.374,0,.749,0,1.123,0,.697.38,1.382.991,1.727l.918.519c2.244,1.268,4.263-2.186,2.019-3.454Z"/></g><path class="o" d="M369.435,235.613c-12.941-3.659-35.69,2.425-35.69,2.425-6.085,1.288-11.377,4.909-12.464,11.493-.179,3.548.821,14.992,1.365,19.454.088.724.039,1.473.307,2.159.275.704.791,1.305,1.316,1.879,2.775,3.032,6.556,3.222,9.21,3.664l2.522.024c-.003-3.676-.008-7.306-.014-9.442-.932-.576-1.498-1.587-1.498-2.688,0-1.881.001-4.165.001-5.588,0,0,0-1.502,0-3.713,5.424,3.006,10.393,5.401,16.773,6.785,1.444.313,3.83.365,5.289.133,2.053-.326,4.311-1.156,5.444-2.556,0,0,6.147-3.531,15.886-9.127l-.458-.129s-1.607-12.97-7.989-14.775Z"/><g id="g"><path class="s" d="M301.097,203.505c.931.537,30.089,17.375,31.512,18.197.634-.366,21.312-12.317,21.81-12.604-2.73-1.578-28.101-16.229-31.51-18.197-.581.336-21.332,12.326-21.812,12.603,0,0,0,0,0,.001Z"/></g><path class="q" d="M304.054,215.708c0-1.282.221-2.59.879-3.437.759-.979,1.761-1.744,2.942-2.117,1.626-.515,3.361.166,5.051-.561,1.19-.512,2.127-1.45,3.422-1.473,1.135-.02,2.008.423,2.722,1.306.892,1.103,2.472,3.722,3.514,5.639l.532.978c-.211.066-.444.15-.602.298-2.649,2.468-5.298,4.936-7.948,7.404-.02.019-.04.038-.057.061-1.747-.452-6.204-2.081-8.386-3.773-.471-.365-.929-.832-1.254-1.331-.481-.74-.766-1.613-.804-2.495-.007-.165-.011-.332-.011-.499Z"/><path class="u" d="M389.948,263.854c0,8.289.008,16.578.008,24.867,0,2.574,4,2.578,4,0,0-8.289-.008-16.578-.008-24.867,0-2.574-4-2.578-4,0h0Z"/><path class="u" d="M360.193,281.987v23.909c0,2.574,4,2.578,4,0v-23.909c0-2.574-4-2.578-4,0h0Z"/><path class="m" d="M315.432,272.795c.572-.472,1.239-.813,2.017-.999,1.509-.362,3.776-.337,5.809-.044.279.454.642.87,1.01,1.271,2.901,3.17,6.901,3.234,9.564,3.726.003,3.208.006,6.457.008,9.086-1.251.8-2.804,1.196-4.301,1.139-1.987-.077-3.88-.822-5.717-1.583-3.266-1.353-6.608-2.864-8.944-5.518-.212-.241-.417-.497-.602-.765-.558-.805-.738-1.679-.674-2.641.045-.686.218-1.64.583-2.222.356-.567.768-1.055,1.248-1.451Z"/><path class="u" d="M331.825,266.769c0,7.317.016,14.635.016,21.952,0,2.574,4,2.578,4,0,0-7.317-.016-14.635-.016-21.952,0-2.574-4-2.578-4,0h0Z"/><path class="m" d="M328.049,217.35c.686.196,1.317.4,1.869.68.197.1.42.188.634.134.245-.062.402-.294.533-.51,3.897-6.427,4.953-14.595,10.943-21.061,2.133-2.068,3.588-2.717,6.265-4.004,4.809-2.312,9.208-4.162,14.516-4.702,1.416-.144,2.868.094,4.253.587,2.667,1.232,5.845,3.589,7.395,6.521,3.607,6.824,4.16,22.563,4.194,27.722-7.622,14.496-11.704,14.13-17.391,17.426-1.127.66-3.565,1.62-4.835,1.9-5.81,1.34-10.93,1.57-15.639-.51-.572-.24-1.143-.55-1.429-1.08-.244-.46-.202-1.02-.168-1.55.193-2.829.404-5.658.611-8.454-.466.507-.978,1.006-1.572,1.511-2.095,1.778-5.195,3.091-7.939,3.231-3.586.183-7.21-1.644-10.407-4.143-2.034-1.59-3.797-3.491-5.499-5.433-.203-.232-.416-.486-.439-.794-.033-.428.308-.783.622-1.076,2.649-2.468,5.298-4.936,7.948-7.404.183-.171.465-.257.706-.329.364-.108.815-.01,1.025.086,1.341.614,2.65.922,3.805,1.252Z"/><path class="t" d="M391.956,262.561c0-11.056-.016-37.829-.016-44.693,0-1.296-1.376-2.112-2.512-1.488-6.112,3.392-18.064,10.32-24.592,14.224-1.552.928-2.512,2.592-2.512,4.4v24.331c-.202.19-.329.308-.329.308-1.133,1.4-3.392,2.23-5.444,2.556-1.459.232-3.845.18-5.289-.133-6.634-1.439-11.743-3.971-17.423-7.147,0,6.619,0,11.799,0,11.799,5.39,3.109,20.486,11.776,25.474,14.659,1.41.815,3.714.814,5.124,0,5.409-3.124,17.902-10.339,24.991-14.433,1.57-.907,2.528-2.569,2.528-4.382"/><path class="q" d="M344.207,188.812c.131.046.262.091.394.134.606-3.364.997-6.94.242-10.32-.416-1.863-1.288-3.677-2.742-4.914-2.111-1.795-4.532-1.477-7.25-1.758-.015.176-.029.354-.04.532-.259,4.061.57,8.838,3.153,12.091,1.585,1.996,3.834,3.382,6.245,4.235Z"/><path class="u" d="M360.255,157.507c-6.575-2.94-14.413-2.059-19.954,2.916-.433.389-.847.799-1.237,1.23-2.587,2.859-3.883,6.508-4.214,10.301,2.72.281,5.139-.036,7.25,1.758,1.454,1.237,2.326,3.051,2.742,4.914.755,3.38.364,6.956-.24,10.321.1.033.203.066.305.097.024.007.047.014.071.022,6.741,2.047,16.258,1.851,21.454-3.579,2.028-2.119,3.141-4.971,3.699-7.851.875-4.513.431-9.405-1.941-13.343-1.259-2.089-3.028-3.837-5.049-5.189-.925-.619-1.891-1.151-2.886-1.596Z"/><path class="o" d="M215.889,324.695c-12.941-3.659-35.69,2.425-35.69,2.425-6.085,1.288-11.377,4.909-12.464,11.493-.179,3.548.821,14.992,1.365,19.454.088.724.039,1.473.307,2.159.275.704.791,1.305,1.316,1.879,2.775,3.032,6.556,3.222,9.21,3.664l2.522.024c-.003-3.676-.008-7.306-.014-9.442-.932-.576-1.498-1.587-1.498-2.688,0-1.881.001-4.165.001-5.588,0,0,0-1.502,0-3.713,5.424,3.006,10.393,5.401,16.773,6.785,1.444.313,3.83.365,5.289.133,2.053-.326,4.311-1.156,5.444-2.556,0,0,6.147-3.531,15.886-9.127l-.458-.129s-1.607-12.97-7.989-14.775Z"/><g id="h"><path class="s" d="M147.552,292.587c.931.537,30.089,17.375,31.512,18.197.634-.366,21.312-12.317,21.81-12.604-2.73-1.578-28.101-16.229-31.51-18.197-.581.336-21.332,12.326-21.812,12.603,0,0,0,0,0,.001Z"/></g><path class="q" d="M150.509,304.79c0-1.282.221-2.59.879-3.437.759-.979,1.761-1.744,2.942-2.117,1.626-.515,3.361.166,5.051-.561,1.19-.512,2.127-1.45,3.422-1.473,1.135-.02,2.008.423,2.722,1.306.892,1.103,2.472,3.722,3.514,5.639l.532.978c-.211.066-.444.15-.602.298-2.649,2.468-5.298,4.936-7.948,7.404-.02.019-.04.038-.057.061-1.747-.452-6.204-2.081-8.386-3.773-.471-.365-.929-.832-1.254-1.331-.481-.74-.766-1.613-.804-2.495-.007-.165-.011-.332-.011-.499Z"/><path class="m" d="M174.503,306.432c.686.196,1.317.4,1.869.68.197.1.42.188.634.134.245-.062.402-.294.533-.51,3.897-6.427,4.953-14.595,10.943-21.061,2.133-2.068,3.588-2.717,6.265-4.004,4.809-2.312,9.208-4.162,14.516-4.702,1.416-.144,2.868.094,4.253.587,2.667,1.232,5.845,3.589,7.395,6.521,3.607,6.824,4.16,17.231,4.194,22.391-7.622,14.496-11.704,19.462-17.391,22.758-1.127.66-3.565,1.62-4.835,1.9-5.81,1.34-10.93,1.57-15.639-.51-.572-.24-1.143-.55-1.429-1.08-.244-.46-.202-1.02-.168-1.55.193-2.829.404-5.658.611-8.454-.466.507-.978,1.006-1.572,1.511-2.095,1.778-5.195,3.091-7.939,3.231-3.586.183-7.21-1.644-10.407-4.143-2.034-1.59-3.797-3.491-5.499-5.433-.203-.232-.416-.486-.439-.794-.033-.428.308-.783.622-1.076,2.649-2.468,5.298-4.936,7.948-7.404.183-.171.465-.257.706-.329.364-.108.815-.01,1.025.086,1.341.614,2.65.922,3.805,1.252Z"/><path class="u" d="M236.403,352.936c0,8.289.008,16.578.008,24.867,0,2.574,4,2.578,4,0,0-8.289-.008-16.578-.008-24.867,0-2.574-4-2.578-4,0h0Z"/><path class="u" d="M206.648,371.069v23.909c0,2.574,4,2.578,4,0v-23.909c0-2.574-4-2.578-4,0h0Z"/><path class="m" d="M161.887,361.877c.572-.472,1.239-.813,2.017-.999,1.509-.362,3.776-.337,5.809-.044.279.454.642.87,1.01,1.271,2.901,3.17,6.901,3.234,9.564,3.726.003,3.208.006,6.457.008,9.086-1.251.8-2.804,1.196-4.301,1.139-1.987-.077-3.88-.822-5.717-1.583-3.266-1.353-6.608-2.864-8.944-5.518-.212-.241-.417-.497-.602-.765-.558-.805-.738-1.679-.674-2.641.045-.686.218-1.64.583-2.222.356-.567.768-1.055,1.248-1.451Z"/><path class="u" d="M178.28,355.852c0,7.317.016,14.635.016,21.952,0,2.574,4,2.578,4,0,0-7.317-.016-14.635-.016-21.952,0-2.574-4-2.578-4,0h0Z"/><path class="q" d="M190.662,277.894c.131.046.262.091.394.134.606-3.364.997-6.94.242-10.32-.416-1.863-1.288-3.677-2.742-4.914-2.111-1.795-4.532-1.477-7.25-1.758-.015.176-.029.354-.04.532-.259,4.061.57,8.838,3.153,12.091,1.585,1.996,3.834,3.382,6.245,4.235Z"/><path class="u" d="M206.71,246.589c-6.575-2.94-14.413-2.059-19.954,2.916-.433.389-.847.799-1.237,1.23-2.587,2.859-3.883,6.508-4.214,10.301,2.72.281,5.139-.036,7.25,1.758,1.454,1.237,2.326,3.051,2.742,4.914.755,3.38.364,6.956-.24,10.321.1.033.203.066.305.097.024.007.047.014.071.022,6.741,2.047,16.258,1.851,21.454-3.579,2.028-2.119,3.141-4.971,3.699-7.851.875-4.513.431-9.405-1.941-13.343-1.259-2.089-3.028-3.837-5.049-5.189-.925-.619-1.891-1.151-2.886-1.596Z"/><g id="i"><path class="r" d="M21.482,219.431c0-3.305.053-111.066.053-113.667C35.02,97.968,184.404,11.709,201.234,1.991c0,3.035-.043,111.276-.043,113.668-4.504,2.6-172.681,99.713-179.709,103.771Z"/></g><g id="j"><path class="u" d="M23.482,219.431c0-4.117.003-8.234.005-12.351.004-8.929.008-17.858.013-26.787.005-10.688.01-21.377.015-32.065.004-9.257.009-18.514.013-27.771.001-3.139.003-6.279.004-9.418,0-1.623.11-3.289.002-4.909-.008-.121,0-.244,0-.365l-.991,1.727c2.527-1.461,5.054-2.92,7.581-4.38,4.616-2.666,9.232-5.332,13.849-7.999,6.207-3.584,12.413-7.169,18.62-10.753,7.298-4.215,14.596-8.429,21.894-12.644,7.891-4.557,15.781-9.113,23.672-13.67,7.984-4.611,15.968-9.221,23.953-13.832,7.579-4.376,15.158-8.753,22.737-13.129,6.675-3.854,13.349-7.708,20.024-11.563,5.271-3.044,10.543-6.088,15.814-9.132,3.38-1.952,6.761-3.904,10.141-5.856.472-.272.943-.545,1.415-.817l-3.009-1.727c0,4.085-.003,8.169-.004,12.254-.003,8.969-.007,17.937-.01,26.906-.004,10.663-.008,21.325-.012,31.988-.004,9.303-.007,18.606-.011,27.909-.001,3.143-.002,6.285-.004,9.428,0,1.594-.104,3.227-.002,4.818.008.121,0,.245,0,.366l.991-1.727c-1.904,1.099-3.807,2.198-5.711,3.298-4.402,2.542-8.803,5.083-13.205,7.625-6.333,3.657-12.667,7.314-19,10.971-7.644,4.414-15.287,8.828-22.931,13.241-8.31,4.798-16.619,9.597-24.929,14.395-8.444,4.876-16.888,9.752-25.332,14.627-7.935,4.582-15.871,9.164-23.806,13.747-6.793,3.923-13.586,7.845-20.38,11.768-5.106,2.948-10.212,5.897-15.318,8.845-2.772,1.601-5.545,3.202-8.317,4.803-.26.15-.52.3-.781.451-2.229,1.287-.217,4.745,2.019,3.454,4.443-2.565,8.886-5.131,13.33-7.697,9.643-5.568,19.286-11.137,28.929-16.705,12.458-7.193,24.915-14.387,37.373-21.58,13.112-7.572,26.225-15.143,39.337-22.715,11.391-6.578,22.783-13.156,34.174-19.734,7.334-4.235,14.667-8.469,22.001-12.704,1.46-.843,2.97-1.635,4.395-2.538,1.111-.704,1.161-1.654,1.162-2.786,0-1.22,0-2.441.001-3.661.004-11.197.008-22.394.013-33.591.006-14.723.011-29.447.017-44.17.004-9.788.008-19.576.011-29.363,0-.641,0-1.282,0-1.922,0-1.522-1.697-2.485-3.009-1.727-5.689,3.285-11.379,6.57-17.068,9.856-10.216,5.899-20.432,11.798-30.648,17.697-12.595,7.273-25.19,14.546-37.785,21.819-12.856,7.424-25.711,14.847-38.567,22.271-10.849,6.265-21.698,12.53-32.547,18.796-6.811,3.933-13.622,7.867-20.432,11.801-.8.462-1.62.902-2.405,1.389-1.219.757-1.239,1.732-1.239,2.945-.001,2.931-.003,5.863-.004,8.794-.005,11.7-.011,23.4-.017,35.099-.007,13.626-.013,27.251-.02,40.877-.004,8.687-.009,17.374-.012,26.06,0,.587,0,1.174,0,1.761,0,2.574,4,2.578,4,0Z"/></g><g id="k"><path class="s" d="M147.125,320.498h-.003c.336.091.673.182,1.009.273-10.975-6.337-21.945-12.683-32.918-19.024-1.716-.992-3.432-1.984-5.148-2.975l.919,2.259.003-.02c.147-1.069-.259-2.147-1.397-2.46-.934-.257-2.312.32-2.46,1.397l-.003.02c-.123.892.081,1.775.919,2.259,11.146,6.437,22.288,12.881,33.431,19.321,1.103.638,2.207,1.275,3.31,1.913.659.381,1.551,1.069,2.337,1.038,2.565-.101,2.578-4.102,0-4h0Z"/></g><path class="r" d="M39.069,162.129c-.727,7.887-2.651,16.606-5.374,23.024-.227.535-.474,1.082-.82,1.361-.762.615-1.627-.285-2.294-1.175-4.738-6.316-8.331-12.891-11.453-21.758l19.942-1.452Z"/><path class="q" d="M67.681,156.811c-.961-.054-1.91.098-2.775.518-4.86,2.358-4.723,10.631-3.25,10.178,2.752,1.783,5.504,3.566,8.255,5.35.187-.033.372-.08.552-.134,2.72-.816,4.842-3.294,5.315-6.093.473-2.8-.683-5.796-2.859-7.62-1.439-1.206-3.363-2.094-5.239-2.199Z"/><path class="u" d="M75.646,153.514c-1.219,1.531-2.4,3.092-3.53,4.689-.285.402-.328,1.083-.202,1.541.128.464.486.967.919,1.195.464.245,1.026.368,1.541.202l.478-.202c.301-.178.54-.417.718-.718.762-1.077,1.546-2.138,2.353-3.182l-.313.405c.286-.37.574-.737.865-1.103.195-.181.333-.396.414-.644.125-.238.183-.495.172-.771,0-.491-.218-1.076-.586-1.414-.381-.35-.882-.61-1.414-.586-.495.022-1.091.18-1.414.586h0Z"/><path class="t" d="M49.337,168.856c-3.082-2.448-6.678-4.579-10.268-6.727-.65,8.299-2.519,16.295-5.374,23.024-.227.535-.474,1.082-.82,1.361-.762.615-1.627-.285-2.294-1.175-4.817-6.422-8.451-13.111-11.604-22.207-3.627-.455-9.329,3.714-11.752,6.552-1.189,1.393-2.55,3.387-3.358,5.03-1.386,2.817-2.164,5.351-2.956,8.389-1.837,7.047-.865,14.784,2.656,21.158,1.057,1.914,2.341,3.698,3.808,5.318-.15,1.279-.236,2.002-.236,2.002,0,0-.484,4.067-.484,6.667,5.233,1.244,10.541,2.232,16.943,2.578,9.682.523,20.049-.406,25.518-.844.314-4.092.207-22.707.484-27.107,0,0,.082-1.305.164-2.609l.753.402,2.785,1.487c4.187,1.298,8.194-4.679,9.928-7.099,2.692-3.757,5.164-7.679,7.489-11.673-3.489-2.262-6.978-4.524-10.467-6.785-1.781,2.028-4.044,4.517-6.29,6.758-1.316-1.639-2.889-3.118-4.624-4.497Z"/><path class="m" d="M7.952,276.515c.135-1.354.853-3.413,2.003-4.258.942.287,1.925.466,2.528.524,4.884.469,9.516.746,13.835-1.582l3.487-2.551c4.11.614,8.647.843,11.868-.273.365-.126.707-.276,1.036-.438,1.666,1.492,5.285,4.693,6.11,6.209.899,1.652,1.232,3.721.416,5.416-.758,1.575-2.399,2.59-4.105,2.965-1.707.375-3.486.189-5.208-.111-2.921-.509-5.164-1.18-7.961-2.338.126.905.128,1.98-.056,2.65-.474,1.729-1.471,2.666-3.028,3.556-1.683.961-3.961.998-5.893.858-3.001-.218-5.886-1.211-8.708-2.255-1.818-.672-3.732-1.449-4.856-3.029-1.202-1.69-1.674-3.278-1.469-5.342Z"/><path class="o" d="M23.598,220.825c2.152.116,4.337.158,6.495.152.254,0,.505,0,.759-.001.038,0,.076,0,.114-.001,5.458-.018,10.734-.377,14.751-.701-.008.241-.011.373-.011.373-.233,11.4-1.383,37.319-1.898,46.628-.612.46-1.332.821-2.134,1.099-3.221,1.116-7.758.887-11.868.273l-3.487,2.551c-4.319,2.328-8.952,2.051-13.835,1.582-1.048-.101-3.244-.556-4.378-1.333-.156-12.441-.017-40.493.751-52.696,4.537,1.002,9.234,1.776,14.741,2.074Z"/><path class="s" d="M26.461,222.869c0,14.134-.007,28.27-.178,42.403-.031,2.575,3.969,2.576,4,0,.17-14.134.178-28.269.178-42.403,0-2.574-4-2.578-4,0h0Z"/><path class="r" d="M17.182,205.428c2.259-3.467,5.051-9.017,8.055-13.948,7.05,1.845,13.446,3.563,19.726,5.131-3.947,7.509-8.087,14.958-12.414,22.315-2.021-.607-5.366-1.494-7.663-2.24l-7.704-11.258Z"/><path class="q" d="M32.383,207.177c.137.3.244.603.312.904,1.276,5.62-4.976,9.53-8.559,9.03-7.032-.982-9.76-4.054-11.524-10.193-.436-2.836.04-5.484,2.523-7.564,1.859-1.557,3.512-2.086,5.023-1.645,2.357.688,3.605,2.323,3.743,4.206,2.122.46,4.386,1.166,6.276,2.47.893.616,1.713,1.715,2.205,2.793Z"/><path class="p" d="M28.239,166.929c-.204.579-.567,1.691-.968,2.885"/><g id="l"><path class="s" d="M222.942,249.186c.931.537,30.089,17.375,31.512,18.197.634-.366,21.312-12.317,21.81-12.604-2.73-1.578-28.101-16.229-31.51-18.197-.581.336-21.332,12.326-21.812,12.603,0,0,0,0,0,.001Z"/></g><path class="q" d="M259.471,248.102c-.051-.117-.09-.242-.115-.374-.074-.379.133-1.025.469-1.231.248-.151.489-.171.674-.393.069-.083.105-.187.132-.291.329-1.267-.534-2.569-.569-3.875-.009-.348.08-.728.316-.99.304-.337.734-.621,1.138-.775,1.208-.46,2.475-.392,3.703.015,1.329.44,2.489,1.305,3.383,2.354-1.783,2.17-3.083,4.504-4.174,6.88l-.795.183c-1.12.258-3.534-.052-4.161-1.504Z"/><path class="o" d="M284.91,303.77c-1.133,1.4-3.392,2.23-5.444,2.556-1.459.232-3.845.18-5.289-.133-6.634-1.439-11.743-3.971-17.423-7.147,0,1.415,0,2.954,0,4.458l-.504-.243c-3.102-1.423-7.623-3.258-11.011-4.764-.75-.333-1.216-1.094-1.18-1.914.043-.988.089-1.964.137-2.924,1.088-6.584,6.379-10.206,12.464-11.493l28.84-3.614-.59,25.22Z"/><path class="m" d="M256.556,330.699c.068-.045.135-.091.201-.139-.002-2.302-.005-5.159-.007-8.073-1.287-.053-2.653-.1-3.837-.159-1.473-.073-3.051-.184-4.208-1.098-.35-.276-.85-1.52-1.049-2.565-.049-.298-.097-.595-.144-.892-1.316-.388-4.466.039-5.763.35-1.284.308-2.331,1.315-3.032,2.434-.328.524-.384,1.113-.425,1.73-.057.865.103,1.687.605,2.41.167.241.351.471.542.688,2.1,2.386,5.104,3.744,8.04,4.96,1.652.684,3.354,1.354,5.14,1.423,1.374.053,2.799-.319,3.938-1.069Z"/><path class="q" d="M247.781,319.209c-.049-.183-.092-.367-.125-.545-.745-4.523-1.232-8.94-1.608-13.837-.125-1.63-.17-3.984-.284-5.615l-.035-.501c3.322,1.462,7.566,3.192,10.522,4.548l.503.231c-.002,2.755-.005,5.099-.005,7.38,0,2.961.003,7.351.005,11.617-1.287-.053-2.655-.1-3.84-.159-1.473-.073-3.051-.184-4.208-1.098-.29-.229-.684-1.125-.923-2.02Z"/><path class="u" d="M254.741,310.896c0,7.317.016,14.635.016,21.952,0,2.574,4,2.578,4,0,0-7.317-.016-14.635-.016-21.952,0-2.574-4-2.578-4,0h0Z"/><path class="q" d="M238.729,258.264c-.987-.105-1.948-.367-2.926-.191-1.135.204-2.151.791-2.969,1.604-.801.796-1.157,2.202-1.271,3.531-.07.818.089,1.659.444,2.399.24.5.608.986.999,1.379,1.625,1.633,4.903,4.058,6.688,5.008.116-.208.3-.39.475-.553,2.649-2.468,5.298-4.936,7.948-7.404.183-.171.465-.257.706-.329.086-.026.177-.04.269-.043l-.847-1.393-2.077-3.374c-.554-.9-1.251-1.895-2.301-2.013-1.199-.134-2.174.942-3.334,1.273-.616.176-1.215.169-1.804.106Z"/><path class="n" d="M256.757,265.159c-.061.104-.123.207-.185.31-.131.216-.288.449-.533.51-.214.054-.437-.034-.634-.134-1.481-.752-3.537-.953-5.674-1.932-.21-.096-.661-.194-1.025-.086-.24.071-.522.158-.706.329-2.649,2.468-5.298,4.936-7.948,7.404-.314.293-.654.648-.622,1.076.023.307.236.562.439.794,1.701,1.942,3.464,3.843,5.499,5.433,3.197,2.499,6.822,4.326,10.407,4.143,2.385-.122,5.038-1.129,7.062-2.562-.104,1.432-.206,2.868-.304,4.303-.034.53-.076,1.09.168,1.55.286.53.858.84,1.429,1.08,4.708,2.08,9.829,1.85,15.639.51,1.27-.28,3.708-1.24,4.835-1.9,4.088-2.37,13.869-7.036,18.144-13.992,1.347-2.193,1.391-8.608,1.159-12.461-.39-5.284-1.414-11.899-3.964-16.724-1.55-2.932-4.728-5.289-7.395-6.521-1.193-.664-2.837-.731-4.253-.587-5.308.541-9.708,2.39-14.516,4.702-2.677,1.287-4.132,1.936-6.265,4.004-.089.096-.178.193-.265.291-5.664,6.315-6.804,14.18-10.494,20.461Z"/><path class="u" d="M312.864,307.981c0,8.289.008,16.578.008,24.867,0,2.574,4,2.578,4,0,0-8.289-.008-16.578-.008-24.867,0-2.574-4-2.578-4,0h0Z"/><path class="u" d="M283.109,326.114v23.909c0,2.574,4,2.578,4,0v-23.909c0-2.574-4-2.578-4,0h0Z"/><path class="q" d="M262.388,220.237c2.292.15,4.359.115,6.192,1.674,1.454,1.237,2.326,3.051,2.742,4.914.755,3.38.364,6.956-.24,10.321-2.56-.839-4.969-2.265-6.64-4.37-2.582-3.253-3.412-8.03-3.153-12.091.011-.179.025-.358.04-.534.358.037.71.064,1.058.087Z"/><path class="u" d="M292.25,208.439c-1.893-1.732-4.334-3.14-7.867-3.907-6.096-1.324-12.47-.094-17.155,4.105-3.297,2.955-5.48,7.111-6.106,11.49,2.803.324,5.293-.057,7.458,1.784,1.454,1.237,2.326,3.051,2.742,4.914.971,4.345.047,9.016-.788,13.143.481.624,1.304.912,2.032,1.278,3.289,1.649,10.372,3.232,19.099-.607,1.435-.631,3.449-2.018,4.375-3.282.822-1.121,1.692-3.075,1.958-4.667.585-3.5,1.056-7.135-.103-13.7-.48-2.717-2.063-7.272-5.647-10.55Z"/><path class="t" d="M314.871,306.688c0-11.056-.016-37.829-.016-44.693,0-1.296-1.376-2.112-2.512-1.488-6.112,3.392-18.064,10.32-24.592,14.224-1.552.928-2.512,2.592-2.512,4.4v24.309c-.202.203-.329.33-.329.33-1.133,1.4-3.392,2.23-5.444,2.556-1.459.232-3.845.18-5.289-.133-6.634-1.439-11.743-3.971-17.424-7.147,0,6.618,0,11.799,0,11.799,5.39,3.109,20.486,11.776,25.474,14.659,1.41.815,3.714.814,5.124,0,5.409-3.124,17.902-10.339,24.991-14.433,1.57-.907,2.528-2.569,2.528-4.382"/><path class="t" d="M238.41,351.643c0-11.056-.016-37.829-.016-44.693,0-1.296-1.376-2.112-2.512-1.488-6.112,3.392-18.064,10.32-24.592,14.224-1.552.928-2.512,2.592-2.512,4.4,0,4.856,0,15.428,0,24.316l-.329.324c-1.133,1.4-3.392,2.23-5.444,2.556-1.459.232-3.845.18-5.289-.133-6.634-1.439-11.743-3.971-17.424-7.147,0,6.618,0,11.799,0,11.799,5.39,3.109,20.486,11.776,25.474,14.659,1.41.815,3.714.814,5.124,0,5.409-3.124,17.902-10.339,24.991-14.433,1.57-.907,2.528-2.569,2.528-4.382"/><path class="q" d="M22.1,131.783c11.502-3.451,18-.292,19.917,4.208.958,1.708,1.917,4,2.292,5.5.248.991.417,2.426.527,3.623.03.323.055.629.076.904.38,4.908-1.373,9.945-4.718,13.557-3.345,3.612-8.232,5.746-13.155,5.744-5.211-.002-10.38-2.398-13.722-6.409-2.231-.069-3.495-.046-5.332-.86-1.689-.749-3.134-2.183-3.72-3.992s-.212-3.97,1.092-5.314c.857-.884,1.459-1.249,2.933-1.53,0,0-.939-8.513,6.728-12.263,1.876-.918,4.583-2.417,7.083-3.167Z"/><path class="u" d="M40.15,132.091c-1.727-2.732-4.174-5.057-6.939-6.253-4.111-1.778-6.767-1.76-10.278-1.639-4.247.147-8.121,1.77-11.542,4.292-4.414,3.254-8.181,10.847-6.125,18.403l.416,1.527c.704-.657,1.326-.964,2.606-1.209l6.061-2.763c4.392-1.24,8.723-3.141,12.744-5.281,1.859-.989,4.241-3.334,6.35-3.552,1.165-.12,2.326.662,3.36,1.087,1.423.585,2.903,1.224,4.442,1.408.436.052.884.061,1.323.017-.369-2.048-1.22-4.141-2.419-6.038Z"/><path class="u" d="M34.597,144.594c.021.143.233,1.571,1.474,2.241.813.44,1.577.249,1.816.185.185-.049,1.382-.392,1.839-1.649.433-1.191.054-2.796-1.1-3.597-1.197-.831-2.65-.447-3.411.481-.685.836-.706,1.61-.618,2.338Z"/><path class="u" d="M23.096,148.897c.021.143.233,1.571,1.474,2.241.813.44,1.577.249,1.816.185.185-.049,1.382-.392,1.839-1.649.433-1.191.054-2.796-1.1-3.597-1.197-.831-2.65-.447-3.411.481-.685.836-.706,1.61-.618,2.338Z"/></g></g></svg>